<mxfile host="Electron" modified="2025-02-12T20:48:14.433Z" agent="Mozilla/5.0 (Windows NT 10.0; Win64; x64) AppleWebKit/537.36 (KHTML, like Gecko) draw.io/22.0.2 Chrome/114.0.5735.289 Electron/25.8.4 Safari/537.36" etag="nwEIKjYqDB6U9TDl0ET9" version="22.0.2" type="device">
  <diagram id="R2lEEEUBdFMjLlhIrx00" name="Page-1">
    <mxGraphModel dx="1278" dy="752" grid="1" gridSize="10" guides="1" tooltips="1" connect="1" arrows="1" fold="1" page="1" pageScale="1" pageWidth="850" pageHeight="1100" math="0" shadow="0" extFonts="Permanent Marker^https://fonts.googleapis.com/css?family=Permanent+Marker">
      <root>
        <mxCell id="0" />
        <mxCell id="1" parent="0" />
        <mxCell id="MroF9Ox0VDxHsYH3NFP8-68" value="Naturaleza" style="rounded=0;whiteSpace=wrap;html=1;" parent="1" vertex="1">
          <mxGeometry x="174.26999999999998" y="627.27" width="95.29" height="60" as="geometry" />
        </mxCell>
        <mxCell id="MroF9Ox0VDxHsYH3NFP8-69" value="Calidad" style="rounded=0;whiteSpace=wrap;html=1;" parent="1" vertex="1">
          <mxGeometry x="403.87000000000006" y="810.3299999999999" width="120" height="60" as="geometry" />
        </mxCell>
        <mxCell id="MroF9Ox0VDxHsYH3NFP8-70" value="Formato" style="rounded=0;whiteSpace=wrap;html=1;" parent="1" vertex="1">
          <mxGeometry x="83.59000000000002" y="331.20000000000005" width="120" height="60" as="geometry" />
        </mxCell>
        <mxCell id="MroF9Ox0VDxHsYH3NFP8-71" value="Sede" style="rounded=0;whiteSpace=wrap;html=1;" parent="1" vertex="1">
          <mxGeometry x="413.04999999999995" y="140.00000000000006" width="120" height="60" as="geometry" />
        </mxCell>
        <mxCell id="MroF9Ox0VDxHsYH3NFP8-73" value="Muestra" style="shape=ext;margin=3;double=1;whiteSpace=wrap;html=1;align=center;" parent="1" vertex="1">
          <mxGeometry x="354.27000000000004" y="512.5" width="152.24" height="60" as="geometry" />
        </mxCell>
        <mxCell id="MroF9Ox0VDxHsYH3NFP8-74" value="InterpretaciÃ³n" style="shape=ext;margin=3;double=1;whiteSpace=wrap;html=1;align=center;" parent="1" vertex="1">
          <mxGeometry x="68.37999999999998" y="510.68" width="100" height="60" as="geometry" />
        </mxCell>
        <mxCell id="kpA3sOlLHsasUYpWddV5-11" value="Int-Mues" style="rhombus;whiteSpace=wrap;html=1;" parent="1" vertex="1">
          <mxGeometry x="210.07999999999998" y="506.25" width="70" height="70" as="geometry" />
        </mxCell>
        <mxCell id="kpA3sOlLHsasUYpWddV5-12" value="" style="endArrow=classic;html=1;rounded=0;entryX=1;entryY=0.5;entryDx=0;entryDy=0;exitX=0;exitY=0.5;exitDx=0;exitDy=0;" parent="1" source="kpA3sOlLHsasUYpWddV5-11" target="MroF9Ox0VDxHsYH3NFP8-74" edge="1">
          <mxGeometry width="50" height="50" relative="1" as="geometry">
            <mxPoint x="390.19" y="702.5" as="sourcePoint" />
            <mxPoint x="440.19" y="652.5" as="targetPoint" />
          </mxGeometry>
        </mxCell>
        <mxCell id="kpA3sOlLHsasUYpWddV5-13" value="" style="endArrow=classic;html=1;rounded=0;exitX=1;exitY=0.5;exitDx=0;exitDy=0;entryX=0;entryY=0.5;entryDx=0;entryDy=0;" parent="1" source="kpA3sOlLHsasUYpWddV5-11" target="MroF9Ox0VDxHsYH3NFP8-73" edge="1">
          <mxGeometry width="50" height="50" relative="1" as="geometry">
            <mxPoint x="400.19" y="712.5" as="sourcePoint" />
            <mxPoint x="450.19" y="662.5" as="targetPoint" />
          </mxGeometry>
        </mxCell>
        <mxCell id="kpA3sOlLHsasUYpWddV5-14" value="M:N" style="text;html=1;strokeColor=none;fillColor=none;align=center;verticalAlign=middle;whiteSpace=wrap;rounded=0;fontSize=15;fontStyle=1;" parent="1" vertex="1">
          <mxGeometry x="245.43" y="487" width="34.65" height="20" as="geometry" />
        </mxCell>
        <mxCell id="kpA3sOlLHsasUYpWddV5-15" value="(1,N)" style="text;html=1;strokeColor=none;fillColor=none;align=left;verticalAlign=middle;whiteSpace=wrap;rounded=0;fontSize=9;" parent="1" vertex="1">
          <mxGeometry x="185.17" y="529.2" width="22.5" height="6.7" as="geometry" />
        </mxCell>
        <mxCell id="kpA3sOlLHsasUYpWddV5-16" value="(0,n)" style="text;html=1;strokeColor=none;fillColor=none;align=left;verticalAlign=middle;whiteSpace=wrap;rounded=0;fontSize=9;" parent="1" vertex="1">
          <mxGeometry x="278.74999999999994" y="529.1999999999999" width="22.5" height="6.7" as="geometry" />
        </mxCell>
        <mxCell id="kpA3sOlLHsasUYpWddV5-17" value="tiene" style="text;html=1;strokeColor=none;fillColor=none;align=left;verticalAlign=middle;whiteSpace=wrap;rounded=0;fontSize=9;" parent="1" vertex="1">
          <mxGeometry x="185.16999999999993" y="545.54" width="29.52" height="12.5" as="geometry" />
        </mxCell>
        <mxCell id="kpA3sOlLHsasUYpWddV5-18" value="corresponde_a" style="text;html=1;strokeColor=none;fillColor=none;align=left;verticalAlign=middle;whiteSpace=wrap;rounded=0;fontSize=9;" parent="1" vertex="1">
          <mxGeometry x="276.5500000000002" y="544" width="50" height="12.5" as="geometry" />
        </mxCell>
        <mxCell id="kpA3sOlLHsasUYpWddV5-19" value="&lt;font style=&quot;font-size: 8px;&quot;&gt;&amp;nbsp; &amp;nbsp; Mues-Usu&lt;/font&gt;" style="shape=rhombus;perimeter=rhombusPerimeter;whiteSpace=wrap;html=1;align=left;fontStyle=1;fontSize=10;" parent="1" vertex="1">
          <mxGeometry x="528.5799999999999" y="385" width="70" height="60" as="geometry" />
        </mxCell>
        <mxCell id="kpA3sOlLHsasUYpWddV5-20" value="ID" style="text;html=1;strokeColor=none;fillColor=none;align=center;verticalAlign=middle;whiteSpace=wrap;rounded=0;fontSize=8;fontStyle=1;" parent="1" vertex="1">
          <mxGeometry x="581.8399999999998" y="409.66" width="12.43" height="9.31" as="geometry" />
        </mxCell>
        <mxCell id="kpA3sOlLHsasUYpWddV5-21" value="1:N" style="text;html=1;strokeColor=none;fillColor=none;align=center;verticalAlign=middle;whiteSpace=wrap;rounded=0;fontSize=15;fontStyle=1;" parent="1" vertex="1">
          <mxGeometry x="554.8299999999998" y="572.9499999999999" width="22.43" height="20" as="geometry" />
        </mxCell>
        <mxCell id="kpA3sOlLHsasUYpWddV5-22" value="" style="endArrow=none;html=1;rounded=0;exitX=0;exitY=0;exitDx=0;exitDy=0;entryX=0;entryY=1;entryDx=0;entryDy=0;" parent="1" edge="1">
          <mxGeometry width="50" height="50" relative="1" as="geometry">
            <mxPoint x="581.8399999999999" y="399.99999999999943" as="sourcePoint" />
            <mxPoint x="581.8399999999999" y="429.99999999999943" as="targetPoint" />
          </mxGeometry>
        </mxCell>
        <mxCell id="kpA3sOlLHsasUYpWddV5-23" value="" style="endArrow=classic;html=1;rounded=0;entryX=0;entryY=0.5;entryDx=0;entryDy=0;exitX=1;exitY=0.5;exitDx=0;exitDy=0;" parent="1" source="kpA3sOlLHsasUYpWddV5-19" target="kpA3sOlLHsasUYpWddV5-62" edge="1">
          <mxGeometry width="50" height="50" relative="1" as="geometry">
            <mxPoint x="564.18" y="542.5" as="sourcePoint" />
            <mxPoint x="641.3299999999999" y="415" as="targetPoint" />
          </mxGeometry>
        </mxCell>
        <mxCell id="kpA3sOlLHsasUYpWddV5-24" value="" style="endArrow=classic;html=1;rounded=0;exitX=0;exitY=0.5;exitDx=0;exitDy=0;entryX=0.892;entryY=0.005;entryDx=0;entryDy=0;entryPerimeter=0;" parent="1" source="kpA3sOlLHsasUYpWddV5-19" target="MroF9Ox0VDxHsYH3NFP8-73" edge="1">
          <mxGeometry width="50" height="50" relative="1" as="geometry">
            <mxPoint x="570.16" y="542.5" as="sourcePoint" />
            <mxPoint x="620.16" y="492.5" as="targetPoint" />
            <Array as="points">
              <mxPoint x="490.27000000000004" y="415.5" />
            </Array>
          </mxGeometry>
        </mxCell>
        <mxCell id="kpA3sOlLHsasUYpWddV5-25" value="&lt;font style=&quot;font-size: 8px;&quot;&gt;&amp;nbsp; &amp;nbsp; &amp;nbsp; Se-Mues&lt;/font&gt;" style="shape=rhombus;perimeter=rhombusPerimeter;whiteSpace=wrap;html=1;align=left;fontStyle=1;fontSize=10;" parent="1" vertex="1">
          <mxGeometry x="438.05" y="252.5" width="70" height="60" as="geometry" />
        </mxCell>
        <mxCell id="kpA3sOlLHsasUYpWddV5-26" value="ID" style="text;html=1;strokeColor=none;fillColor=none;align=center;verticalAlign=middle;whiteSpace=wrap;rounded=0;fontSize=8;fontStyle=1;" parent="1" vertex="1">
          <mxGeometry x="466.84" y="262.5" width="12.43" height="9.31" as="geometry" />
        </mxCell>
        <mxCell id="kpA3sOlLHsasUYpWddV5-27" value="N:1" style="text;html=1;strokeColor=none;fillColor=none;align=center;verticalAlign=middle;whiteSpace=wrap;rounded=0;fontSize=15;fontStyle=1;" parent="1" vertex="1">
          <mxGeometry x="405.49999999999994" y="271.80999999999995" width="22.43" height="20" as="geometry" />
        </mxCell>
        <mxCell id="kpA3sOlLHsasUYpWddV5-28" value="" style="endArrow=none;html=1;rounded=0;exitX=0.83;exitY=0.333;exitDx=0;exitDy=0;entryX=0.165;entryY=0.333;entryDx=0;entryDy=0;entryPerimeter=0;exitPerimeter=0;" parent="1" source="kpA3sOlLHsasUYpWddV5-25" target="kpA3sOlLHsasUYpWddV5-25" edge="1">
          <mxGeometry width="50" height="50" relative="1" as="geometry">
            <mxPoint x="490.59" y="272.5" as="sourcePoint" />
            <mxPoint x="455.59" y="272.5" as="targetPoint" />
          </mxGeometry>
        </mxCell>
        <mxCell id="kpA3sOlLHsasUYpWddV5-30" value="" style="endArrow=classic;html=1;rounded=0;entryX=0.5;entryY=1;entryDx=0;entryDy=0;exitX=0.5;exitY=0;exitDx=0;exitDy=0;" parent="1" source="kpA3sOlLHsasUYpWddV5-25" target="MroF9Ox0VDxHsYH3NFP8-71" edge="1">
          <mxGeometry width="50" height="50" relative="1" as="geometry">
            <mxPoint x="444.51000000000005" y="401.82" as="sourcePoint" />
            <mxPoint x="494.51000000000005" y="351.82" as="targetPoint" />
          </mxGeometry>
        </mxCell>
        <mxCell id="kpA3sOlLHsasUYpWddV5-31" value="" style="endArrow=classic;html=1;rounded=0;entryX=0.795;entryY=-0.012;entryDx=0;entryDy=0;exitX=0.5;exitY=1;exitDx=0;exitDy=0;entryPerimeter=0;" parent="1" source="kpA3sOlLHsasUYpWddV5-25" target="MroF9Ox0VDxHsYH3NFP8-73" edge="1">
          <mxGeometry width="50" height="50" relative="1" as="geometry">
            <mxPoint x="430.16" y="392.5" as="sourcePoint" />
            <mxPoint x="520.1600000000001" y="422.5" as="targetPoint" />
          </mxGeometry>
        </mxCell>
        <mxCell id="kpA3sOlLHsasUYpWddV5-32" value="tiene" style="text;html=1;strokeColor=none;fillColor=none;align=left;verticalAlign=middle;whiteSpace=wrap;rounded=0;fontSize=9;" parent="1" vertex="1">
          <mxGeometry x="442.0799999999999" y="209.99999999999997" width="29.52" height="12.5" as="geometry" />
        </mxCell>
        <mxCell id="kpA3sOlLHsasUYpWddV5-33" value="corresponde_a" style="text;html=1;strokeColor=none;fillColor=none;align=left;verticalAlign=middle;whiteSpace=wrap;rounded=0;fontSize=9;" parent="1" vertex="1">
          <mxGeometry x="404.30000000000024" y="312.5" width="50" height="12.5" as="geometry" />
        </mxCell>
        <mxCell id="kpA3sOlLHsasUYpWddV5-34" value="tiene" style="text;html=1;strokeColor=none;fillColor=none;align=left;verticalAlign=middle;whiteSpace=wrap;rounded=0;fontSize=9;" parent="1" vertex="1">
          <mxGeometry x="501.5400000000001" y="418.96999999999997" width="29.52" height="12.5" as="geometry" />
        </mxCell>
        <mxCell id="kpA3sOlLHsasUYpWddV5-35" value="corresponde_a" style="text;html=1;strokeColor=none;fillColor=none;align=left;verticalAlign=middle;whiteSpace=wrap;rounded=0;fontSize=9;" parent="1" vertex="1">
          <mxGeometry x="581.8400000000001" y="424.02" width="50" height="12.5" as="geometry" />
        </mxCell>
        <mxCell id="kpA3sOlLHsasUYpWddV5-36" value="&lt;span style=&quot;font-weight: normal;&quot;&gt;&lt;font style=&quot;font-size: 8px;&quot;&gt;&amp;nbsp; &amp;nbsp; &amp;nbsp; &amp;nbsp; &amp;nbsp; Form-Mues&lt;/font&gt;&lt;/span&gt;" style="shape=rhombus;perimeter=rhombusPerimeter;whiteSpace=wrap;html=1;align=left;fontStyle=1;fontSize=10;" parent="1" vertex="1">
          <mxGeometry x="252" y="320.74" width="80.72" height="60.88" as="geometry" />
        </mxCell>
        <mxCell id="kpA3sOlLHsasUYpWddV5-37" value="ID" style="text;html=1;strokeColor=none;fillColor=none;align=center;verticalAlign=middle;whiteSpace=wrap;rounded=0;fontSize=8;fontStyle=1;" parent="1" vertex="1">
          <mxGeometry x="257.1299999999999" y="345.34000000000003" width="12.43" height="9.31" as="geometry" />
        </mxCell>
        <mxCell id="kpA3sOlLHsasUYpWddV5-38" value="1:N" style="text;html=1;strokeColor=none;fillColor=none;align=center;verticalAlign=middle;whiteSpace=wrap;rounded=0;fontSize=15;fontStyle=1;" parent="1" vertex="1">
          <mxGeometry x="278.8199999999998" y="299.05999999999995" width="22.43" height="20" as="geometry" />
        </mxCell>
        <mxCell id="kpA3sOlLHsasUYpWddV5-39" value="" style="endArrow=none;html=1;rounded=0;entryX=0.215;entryY=0.704;entryDx=0;entryDy=0;entryPerimeter=0;exitX=0.217;exitY=0.291;exitDx=0;exitDy=0;exitPerimeter=0;" parent="1" source="kpA3sOlLHsasUYpWddV5-36" target="kpA3sOlLHsasUYpWddV5-36" edge="1">
          <mxGeometry width="50" height="50" relative="1" as="geometry">
            <mxPoint x="270" y="340" as="sourcePoint" />
            <mxPoint x="270" y="360" as="targetPoint" />
          </mxGeometry>
        </mxCell>
        <mxCell id="kpA3sOlLHsasUYpWddV5-42" value="" style="endArrow=classic;html=1;rounded=0;exitX=0;exitY=0.5;exitDx=0;exitDy=0;entryX=1;entryY=0.5;entryDx=0;entryDy=0;" parent="1" source="kpA3sOlLHsasUYpWddV5-36" edge="1">
          <mxGeometry width="50" height="50" relative="1" as="geometry">
            <mxPoint x="417.69" y="319.06" as="sourcePoint" />
            <mxPoint x="201.79999999999995" y="350.88000000000005" as="targetPoint" />
          </mxGeometry>
        </mxCell>
        <mxCell id="kpA3sOlLHsasUYpWddV5-43" value="tiene" style="text;html=1;strokeColor=none;fillColor=none;align=left;verticalAlign=middle;whiteSpace=wrap;rounded=0;fontSize=9;" parent="1" vertex="1">
          <mxGeometry x="219.42999999999995" y="353.90999999999997" width="29.52" height="12.5" as="geometry" />
        </mxCell>
        <mxCell id="kpA3sOlLHsasUYpWddV5-44" value="corresponde_a" style="text;html=1;strokeColor=none;fillColor=none;align=left;verticalAlign=middle;whiteSpace=wrap;rounded=0;fontSize=9;" parent="1" vertex="1">
          <mxGeometry x="333.01000000000005" y="351.82000000000005" width="60.84" height="12.5" as="geometry" />
        </mxCell>
        <mxCell id="kpA3sOlLHsasUYpWddV5-45" value="&lt;font style=&quot;font-size: 8px;&quot;&gt;&amp;nbsp; &amp;nbsp; &amp;nbsp; &amp;nbsp; Mues-Img&lt;/font&gt;" style="shape=rhombus;perimeter=rhombusPerimeter;whiteSpace=wrap;html=1;align=left;fontStyle=1;fontSize=10;" parent="1" vertex="1">
          <mxGeometry x="531.04" y="595.45" width="70.42" height="60" as="geometry" />
        </mxCell>
        <mxCell id="kpA3sOlLHsasUYpWddV5-46" value="ID" style="text;html=1;strokeColor=none;fillColor=none;align=center;verticalAlign=middle;whiteSpace=wrap;rounded=0;fontSize=8;fontStyle=1;" parent="1" vertex="1">
          <mxGeometry x="533.56" y="620.7900000000001" width="12.43" height="9.31" as="geometry" />
        </mxCell>
        <mxCell id="kpA3sOlLHsasUYpWddV5-47" value="N:1" style="text;html=1;strokeColor=none;fillColor=none;align=center;verticalAlign=middle;whiteSpace=wrap;rounded=0;fontSize=15;fontStyle=1;" parent="1" vertex="1">
          <mxGeometry x="551.7499999999999" y="364.31999999999994" width="22.43" height="20" as="geometry" />
        </mxCell>
        <mxCell id="kpA3sOlLHsasUYpWddV5-48" value="" style="endArrow=none;html=1;rounded=0;exitX=0.211;exitY=0.294;exitDx=0;exitDy=0;entryX=0.214;entryY=0.715;entryDx=0;entryDy=0;exitPerimeter=0;entryPerimeter=0;" parent="1" source="kpA3sOlLHsasUYpWddV5-45" target="kpA3sOlLHsasUYpWddV5-45" edge="1">
          <mxGeometry width="50" height="50" relative="1" as="geometry">
            <mxPoint x="543.6207200000001" y="612.4300000000001" as="sourcePoint" />
            <mxPoint x="543.4798800000001" y="638.4700000000001" as="targetPoint" />
          </mxGeometry>
        </mxCell>
        <mxCell id="kpA3sOlLHsasUYpWddV5-49" value="tiene" style="text;html=1;strokeColor=none;fillColor=none;align=left;verticalAlign=middle;whiteSpace=wrap;rounded=0;fontSize=9;" parent="1" vertex="1">
          <mxGeometry x="626.78" y="627.72" width="29.52" height="12.5" as="geometry" />
        </mxCell>
        <mxCell id="kpA3sOlLHsasUYpWddV5-50" value="" style="endArrow=classic;html=1;rounded=0;entryX=0;entryY=0.5;entryDx=0;entryDy=0;exitX=1;exitY=0.5;exitDx=0;exitDy=0;" parent="1" source="kpA3sOlLHsasUYpWddV5-45" target="kpA3sOlLHsasUYpWddV5-65" edge="1">
          <mxGeometry width="50" height="50" relative="1" as="geometry">
            <mxPoint x="441.46000000000004" y="675.45" as="sourcePoint" />
            <mxPoint x="663.8099999999998" y="625.45" as="targetPoint" />
          </mxGeometry>
        </mxCell>
        <mxCell id="kpA3sOlLHsasUYpWddV5-51" value="" style="endArrow=classic;html=1;rounded=0;entryX=0.75;entryY=1;entryDx=0;entryDy=0;exitX=0;exitY=0.5;exitDx=0;exitDy=0;" parent="1" source="kpA3sOlLHsasUYpWddV5-45" target="MroF9Ox0VDxHsYH3NFP8-73" edge="1">
          <mxGeometry width="50" height="50" relative="1" as="geometry">
            <mxPoint x="420.16" y="722.5" as="sourcePoint" />
            <mxPoint x="470.16" y="672.5" as="targetPoint" />
            <Array as="points">
              <mxPoint x="468" y="625" />
            </Array>
          </mxGeometry>
        </mxCell>
        <mxCell id="kpA3sOlLHsasUYpWddV5-53" value="corresponde_a" style="text;html=1;strokeColor=none;fillColor=none;align=left;verticalAlign=middle;whiteSpace=wrap;rounded=0;fontSize=9;" parent="1" vertex="1">
          <mxGeometry x="472.84000000000026" y="628.4000000000002" width="50" height="12.5" as="geometry" />
        </mxCell>
        <mxCell id="kpA3sOlLHsasUYpWddV5-54" value="(0,n)" style="text;html=1;strokeColor=none;fillColor=none;align=left;verticalAlign=middle;whiteSpace=wrap;rounded=0;fontSize=9;" parent="1" vertex="1">
          <mxGeometry x="505.04999999999995" y="402.96000000000004" width="22.5" height="6.7" as="geometry" />
        </mxCell>
        <mxCell id="kpA3sOlLHsasUYpWddV5-55" value="(1,1)" style="text;html=1;strokeColor=none;fillColor=none;align=left;verticalAlign=middle;whiteSpace=wrap;rounded=0;fontSize=9;" parent="1" vertex="1">
          <mxGeometry x="593.4000000000007" y="397.50000000000057" width="25.5" height="12.5" as="geometry" />
        </mxCell>
        <mxCell id="kpA3sOlLHsasUYpWddV5-57" value="(1,1)" style="text;html=1;strokeColor=none;fillColor=none;align=left;verticalAlign=middle;whiteSpace=wrap;rounded=0;fontSize=9;" parent="1" vertex="1">
          <mxGeometry x="221.44000000000065" y="333.50000000000057" width="25.5" height="12.5" as="geometry" />
        </mxCell>
        <mxCell id="kpA3sOlLHsasUYpWddV5-58" value="(0,n)" style="text;html=1;strokeColor=none;fillColor=none;align=left;verticalAlign=middle;whiteSpace=wrap;rounded=0;fontSize=9;" parent="1" vertex="1">
          <mxGeometry x="326.49999999999994" y="335.74999999999994" width="22.5" height="6.7" as="geometry" />
        </mxCell>
        <mxCell id="kpA3sOlLHsasUYpWddV5-59" value="(1,1)" style="text;html=1;strokeColor=none;fillColor=none;align=left;verticalAlign=middle;whiteSpace=wrap;rounded=0;fontSize=9;" parent="1" vertex="1">
          <mxGeometry x="476.0400000000007" y="210.00000000000057" width="25.5" height="12.5" as="geometry" />
        </mxCell>
        <mxCell id="kpA3sOlLHsasUYpWddV5-60" value="(0,N)" style="text;html=1;strokeColor=none;fillColor=none;align=left;verticalAlign=middle;whiteSpace=wrap;rounded=0;fontSize=9;" parent="1" vertex="1">
          <mxGeometry x="479.04" y="310" width="22.5" height="6.7" as="geometry" />
        </mxCell>
        <mxCell id="kpA3sOlLHsasUYpWddV5-61" value="(1,1)" style="text;html=1;strokeColor=none;fillColor=none;align=left;verticalAlign=middle;whiteSpace=wrap;rounded=0;fontSize=9;" parent="1" vertex="1">
          <mxGeometry x="508.0600000000006" y="608.2900000000006" width="25.5" height="12.5" as="geometry" />
        </mxCell>
        <mxCell id="kpA3sOlLHsasUYpWddV5-62" value="Usuario" style="rounded=0;whiteSpace=wrap;html=1;" parent="1" vertex="1">
          <mxGeometry x="647.31" y="385" width="120" height="60" as="geometry" />
        </mxCell>
        <mxCell id="kpA3sOlLHsasUYpWddV5-64" value="(0,n)" style="text;html=1;strokeColor=none;fillColor=none;align=left;verticalAlign=middle;whiteSpace=wrap;rounded=0;fontSize=9;" parent="1" vertex="1">
          <mxGeometry x="599.05" y="611.19" width="22.5" height="6.7" as="geometry" />
        </mxCell>
        <mxCell id="kpA3sOlLHsasUYpWddV5-65" value="Imagen" style="rounded=0;whiteSpace=wrap;html=1;" parent="1" vertex="1">
          <mxGeometry x="664.7499999999999" y="595.45" width="120" height="60" as="geometry" />
        </mxCell>
        <mxCell id="kpA3sOlLHsasUYpWddV5-67" value="&lt;font style=&quot;font-size: 8px;&quot;&gt;&amp;nbsp; &amp;nbsp; &amp;nbsp; Mues-Cal&lt;/font&gt;" style="shape=rhombus;perimeter=rhombusPerimeter;whiteSpace=wrap;html=1;align=left;fontStyle=1;fontSize=10;" parent="1" vertex="1">
          <mxGeometry x="400.9" y="702.8299999999999" width="70" height="60" as="geometry" />
        </mxCell>
        <mxCell id="kpA3sOlLHsasUYpWddV5-68" value="ID" style="text;html=1;strokeColor=none;fillColor=none;align=center;verticalAlign=middle;whiteSpace=wrap;rounded=0;fontSize=8;fontStyle=1;" parent="1" vertex="1">
          <mxGeometry x="429.17999999999995" y="750.3299999999999" width="12.43" height="9.31" as="geometry" />
        </mxCell>
        <mxCell id="kpA3sOlLHsasUYpWddV5-69" value="N:1" style="text;html=1;strokeColor=none;fillColor=none;align=center;verticalAlign=middle;whiteSpace=wrap;rounded=0;fontSize=15;fontStyle=1;" parent="1" vertex="1">
          <mxGeometry x="485.92999999999995" y="722.8299999999999" width="22.43" height="20" as="geometry" />
        </mxCell>
        <mxCell id="kpA3sOlLHsasUYpWddV5-71" value="tiene" style="text;html=1;strokeColor=none;fillColor=none;align=left;verticalAlign=middle;whiteSpace=wrap;rounded=0;fontSize=9;" parent="1" vertex="1">
          <mxGeometry x="443.31999999999994" y="789.6399999999999" width="29.52" height="12.5" as="geometry" />
        </mxCell>
        <mxCell id="kpA3sOlLHsasUYpWddV5-72" value="corresponde_a" style="text;html=1;strokeColor=none;fillColor=none;align=left;verticalAlign=middle;whiteSpace=wrap;rounded=0;fontSize=9;" parent="1" vertex="1">
          <mxGeometry x="438.05000000000024" y="691.6999999999999" width="50" height="12.5" as="geometry" />
        </mxCell>
        <mxCell id="kpA3sOlLHsasUYpWddV5-73" value="(1,1)" style="text;html=1;strokeColor=none;fillColor=none;align=left;verticalAlign=middle;whiteSpace=wrap;rounded=0;fontSize=9;" parent="1" vertex="1">
          <mxGeometry x="409.80000000000075" y="789.6400000000006" width="25.5" height="12.5" as="geometry" />
        </mxCell>
        <mxCell id="kpA3sOlLHsasUYpWddV5-74" value="(0,N)" style="text;html=1;strokeColor=none;fillColor=none;align=left;verticalAlign=middle;whiteSpace=wrap;rounded=0;fontSize=9;" parent="1" vertex="1">
          <mxGeometry x="409.80000000000007" y="694.5999999999999" width="22.5" height="6.7" as="geometry" />
        </mxCell>
        <mxCell id="kpA3sOlLHsasUYpWddV5-75" value="" style="endArrow=none;html=1;rounded=0;entryX=0.801;entryY=0.71;entryDx=0;entryDy=0;entryPerimeter=0;exitX=0.219;exitY=0.707;exitDx=0;exitDy=0;exitPerimeter=0;" parent="1" source="kpA3sOlLHsasUYpWddV5-67" target="kpA3sOlLHsasUYpWddV5-67" edge="1">
          <mxGeometry width="50" height="50" relative="1" as="geometry">
            <mxPoint x="419.58000000000004" y="710.3299999999999" as="sourcePoint" />
            <mxPoint x="469.58000000000004" y="660.3299999999999" as="targetPoint" />
          </mxGeometry>
        </mxCell>
        <mxCell id="kpA3sOlLHsasUYpWddV5-76" value="" style="endArrow=classic;html=1;rounded=0;entryX=0.5;entryY=1;entryDx=0;entryDy=0;exitX=0.5;exitY=0;exitDx=0;exitDy=0;" parent="1" source="kpA3sOlLHsasUYpWddV5-67" edge="1">
          <mxGeometry width="50" height="50" relative="1" as="geometry">
            <mxPoint x="426.11" y="710.68" as="sourcePoint" />
            <mxPoint x="436.34" y="570.68" as="targetPoint" />
          </mxGeometry>
        </mxCell>
        <mxCell id="kpA3sOlLHsasUYpWddV5-77" value="" style="endArrow=classic;html=1;rounded=0;entryX=0.5;entryY=0;entryDx=0;entryDy=0;exitX=0.5;exitY=1;exitDx=0;exitDy=0;" parent="1" source="kpA3sOlLHsasUYpWddV5-67" edge="1">
          <mxGeometry width="50" height="50" relative="1" as="geometry">
            <mxPoint x="399.58000000000004" y="710.3299999999999" as="sourcePoint" />
            <mxPoint x="435.9300000000001" y="810.33" as="targetPoint" />
          </mxGeometry>
        </mxCell>
        <mxCell id="kpA3sOlLHsasUYpWddV5-78" value="" style="endArrow=classic;html=1;rounded=0;entryX=0.691;entryY=0.002;entryDx=0;entryDy=0;exitX=1;exitY=0.5;exitDx=0;exitDy=0;entryPerimeter=0;" parent="1" source="kpA3sOlLHsasUYpWddV5-36" target="MroF9Ox0VDxHsYH3NFP8-73" edge="1">
          <mxGeometry width="50" height="50" relative="1" as="geometry">
            <mxPoint x="350.16" y="692.5" as="sourcePoint" />
            <mxPoint x="400.16" y="642.5" as="targetPoint" />
            <Array as="points">
              <mxPoint x="458.98" y="350.5" />
            </Array>
          </mxGeometry>
        </mxCell>
        <mxCell id="kpA3sOlLHsasUYpWddV5-89" value="id" style="text;html=1;strokeColor=none;fillColor=none;align=left;verticalAlign=middle;whiteSpace=wrap;rounded=0;fontSize=9;" parent="1" vertex="1">
          <mxGeometry x="693.87" y="537.0200000000002" width="16.36" height="9.38" as="geometry" />
        </mxCell>
        <mxCell id="kpA3sOlLHsasUYpWddV5-90" value="" style="ellipse;whiteSpace=wrap;html=1;aspect=fixed;fillColor=#000000;strokeColor=#000000;fontColor=#000000;" parent="1" vertex="1">
          <mxGeometry x="679.84" y="535.9000000000001" width="11" height="11" as="geometry" />
        </mxCell>
        <mxCell id="kpA3sOlLHsasUYpWddV5-93" value="id" style="text;html=1;strokeColor=none;fillColor=none;align=left;verticalAlign=middle;whiteSpace=wrap;rounded=0;fontSize=9;" parent="1" vertex="1">
          <mxGeometry x="693.12" y="314.0000000000001" width="16.36" height="9.38" as="geometry" />
        </mxCell>
        <mxCell id="kpA3sOlLHsasUYpWddV5-94" value="" style="ellipse;whiteSpace=wrap;html=1;aspect=fixed;fillColor=#000000;strokeColor=#000000;fontColor=#000000;" parent="1" vertex="1">
          <mxGeometry x="678.25" y="314" width="11" height="11" as="geometry" />
        </mxCell>
        <mxCell id="kpA3sOlLHsasUYpWddV5-95" value="id" style="text;html=1;strokeColor=none;fillColor=none;align=left;verticalAlign=middle;whiteSpace=wrap;rounded=0;fontSize=9;" parent="1" vertex="1">
          <mxGeometry x="434.72999999999996" y="929.3000000000001" width="16.36" height="9.38" as="geometry" />
        </mxCell>
        <mxCell id="kpA3sOlLHsasUYpWddV5-96" value="" style="ellipse;whiteSpace=wrap;html=1;aspect=fixed;fillColor=#000000;strokeColor=#000000;fontColor=#000000;" parent="1" vertex="1">
          <mxGeometry x="420.7" y="928.18" width="11" height="11" as="geometry" />
        </mxCell>
        <mxCell id="kpA3sOlLHsasUYpWddV5-97" value="id" style="text;html=1;strokeColor=none;fillColor=none;align=left;verticalAlign=middle;whiteSpace=wrap;rounded=0;fontSize=9;" parent="1" vertex="1">
          <mxGeometry x="211.70000000000002" y="585.7499999999999" width="16.36" height="9.38" as="geometry" />
        </mxCell>
        <mxCell id="kpA3sOlLHsasUYpWddV5-98" value="" style="ellipse;whiteSpace=wrap;html=1;aspect=fixed;fillColor=#000000;strokeColor=#000000;fontColor=#000000;" parent="1" vertex="1">
          <mxGeometry x="197.67000000000004" y="584.6299999999998" width="11" height="11" as="geometry" />
        </mxCell>
        <mxCell id="kpA3sOlLHsasUYpWddV5-99" value="id" style="text;html=1;strokeColor=none;fillColor=none;align=left;verticalAlign=middle;whiteSpace=wrap;rounded=0;fontSize=9;" parent="1" vertex="1">
          <mxGeometry x="121.79999999999995" y="290.9100000000002" width="16.36" height="9.38" as="geometry" />
        </mxCell>
        <mxCell id="kpA3sOlLHsasUYpWddV5-100" value="" style="ellipse;whiteSpace=wrap;html=1;aspect=fixed;fillColor=#000000;strokeColor=#000000;fontColor=#000000;" parent="1" vertex="1">
          <mxGeometry x="107.76999999999998" y="289.7900000000001" width="11" height="11" as="geometry" />
        </mxCell>
        <mxCell id="kpA3sOlLHsasUYpWddV5-103" value="id" style="text;html=1;strokeColor=none;fillColor=none;align=left;verticalAlign=middle;whiteSpace=wrap;rounded=0;fontSize=9;" parent="1" vertex="1">
          <mxGeometry x="430.01" y="90.12" width="14.1" height="9.38" as="geometry" />
        </mxCell>
        <mxCell id="kpA3sOlLHsasUYpWddV5-104" value="" style="ellipse;whiteSpace=wrap;html=1;aspect=fixed;fillColor=#000000;strokeColor=#000000;fontColor=#000000;" parent="1" vertex="1">
          <mxGeometry x="418.49999999999994" y="90" width="11" height="11" as="geometry" />
        </mxCell>
        <mxCell id="kpA3sOlLHsasUYpWddV5-105" value="id" style="text;html=1;strokeColor=none;fillColor=none;align=left;verticalAlign=middle;whiteSpace=wrap;rounded=0;fontSize=9;" parent="1" vertex="1">
          <mxGeometry x="102.00000000000001" y="455.93" width="12.18" height="9.38" as="geometry" />
        </mxCell>
        <mxCell id="kpA3sOlLHsasUYpWddV5-106" value="" style="ellipse;whiteSpace=wrap;html=1;aspect=fixed;fillColor=#000000;strokeColor=#000000;fontColor=#000000;" parent="1" vertex="1">
          <mxGeometry x="116.98000000000003" y="455.93" width="11" height="11" as="geometry" />
        </mxCell>
        <mxCell id="kpA3sOlLHsasUYpWddV5-108" value="" style="endArrow=none;html=1;rounded=0;exitX=0.5;exitY=0;exitDx=0;exitDy=0;entryX=0.185;entryY=0.992;entryDx=0;entryDy=0;entryPerimeter=0;" parent="1" source="kpA3sOlLHsasUYpWddV5-96" target="MroF9Ox0VDxHsYH3NFP8-69" edge="1">
          <mxGeometry width="50" height="50" relative="1" as="geometry">
            <mxPoint x="401.63000000000005" y="910.3299999999999" as="sourcePoint" />
            <mxPoint x="451.63000000000005" y="860.3299999999999" as="targetPoint" />
          </mxGeometry>
        </mxCell>
        <mxCell id="kpA3sOlLHsasUYpWddV5-110" value="" style="endArrow=none;html=1;rounded=0;entryX=0.5;entryY=1;entryDx=0;entryDy=0;" parent="1" target="kpA3sOlLHsasUYpWddV5-94" edge="1">
          <mxGeometry width="50" height="50" relative="1" as="geometry">
            <mxPoint x="683.98" y="385.5" as="sourcePoint" />
            <mxPoint x="818.23" y="262.5" as="targetPoint" />
          </mxGeometry>
        </mxCell>
        <mxCell id="kpA3sOlLHsasUYpWddV5-111" value="" style="endArrow=none;html=1;rounded=0;entryX=0.5;entryY=1;entryDx=0;entryDy=0;" parent="1" target="kpA3sOlLHsasUYpWddV5-104" edge="1">
          <mxGeometry width="50" height="50" relative="1" as="geometry">
            <mxPoint x="424.11" y="140" as="sourcePoint" />
            <mxPoint x="583.4" y="30" as="targetPoint" />
          </mxGeometry>
        </mxCell>
        <mxCell id="kpA3sOlLHsasUYpWddV5-114" value="" style="endArrow=none;html=1;rounded=0;entryX=0.5;entryY=1;entryDx=0;entryDy=0;exitX=0.25;exitY=0;exitDx=0;exitDy=0;" parent="1" source="MroF9Ox0VDxHsYH3NFP8-70" target="kpA3sOlLHsasUYpWddV5-100" edge="1">
          <mxGeometry width="50" height="50" relative="1" as="geometry">
            <mxPoint x="83.59" y="329.38" as="sourcePoint" />
            <mxPoint x="133.58999999999997" y="279.38" as="targetPoint" />
          </mxGeometry>
        </mxCell>
        <mxCell id="kpA3sOlLHsasUYpWddV5-115" value="idMuestra" style="text;html=1;strokeColor=none;fillColor=none;align=left;verticalAlign=middle;whiteSpace=wrap;rounded=0;fontSize=9;" parent="1" vertex="1">
          <mxGeometry x="154.33000000000015" y="441.11" width="53.5" height="12.5" as="geometry" />
        </mxCell>
        <mxCell id="kpA3sOlLHsasUYpWddV5-116" value="" style="ellipse;whiteSpace=wrap;html=1;aspect=fixed;fillColor=#CCCCCC;strokeColor=#000000;fontColor=#000000;" parent="1" vertex="1">
          <mxGeometry x="197.67000000000013" y="442.60999999999996" width="11" height="11" as="geometry" />
        </mxCell>
        <mxCell id="kpA3sOlLHsasUYpWddV5-125" value="id" style="text;html=1;strokeColor=none;fillColor=none;align=left;verticalAlign=middle;whiteSpace=wrap;rounded=0;fontSize=9;" parent="1" vertex="1">
          <mxGeometry x="293.37" y="490.6800000000003" width="16.36" height="9.38" as="geometry" />
        </mxCell>
        <mxCell id="kpA3sOlLHsasUYpWddV5-126" value="" style="ellipse;whiteSpace=wrap;html=1;aspect=fixed;fillColor=#000000;strokeColor=#000000;fontColor=#000000;" parent="1" vertex="1">
          <mxGeometry x="306.39000000000004" y="488.7500000000001" width="11" height="11" as="geometry" />
        </mxCell>
        <mxCell id="kpA3sOlLHsasUYpWddV5-129" value="idInterpretaciÃ³n" style="text;html=1;strokeColor=none;fillColor=none;align=left;verticalAlign=middle;whiteSpace=wrap;rounded=0;fontSize=9;" parent="1" vertex="1">
          <mxGeometry x="151.14999999999998" y="429.05" width="42.11" height="12.5" as="geometry" />
        </mxCell>
        <mxCell id="kpA3sOlLHsasUYpWddV5-130" value="" style="ellipse;whiteSpace=wrap;html=1;aspect=fixed;fillColor=#CCCCCC;strokeColor=#000000;fontColor=#000000;" parent="1" vertex="1">
          <mxGeometry x="216.79000000000005" y="433.30999999999995" width="11" height="11" as="geometry" />
        </mxCell>
        <mxCell id="kpA3sOlLHsasUYpWddV5-133" value="" style="endArrow=none;html=1;rounded=0;entryX=0.5;entryY=1;entryDx=0;entryDy=0;exitX=0.355;exitY=0.143;exitDx=0;exitDy=0;exitPerimeter=0;" parent="1" source="kpA3sOlLHsasUYpWddV5-11" target="kpA3sOlLHsasUYpWddV5-116" edge="1">
          <mxGeometry width="50" height="50" relative="1" as="geometry">
            <mxPoint x="234.26999999999998" y="502.5" as="sourcePoint" />
            <mxPoint x="284.27" y="452.5" as="targetPoint" />
            <Array as="points">
              <mxPoint x="202.98" y="516.5" />
            </Array>
          </mxGeometry>
        </mxCell>
        <mxCell id="kpA3sOlLHsasUYpWddV5-134" value="" style="endArrow=none;html=1;rounded=0;entryX=0.5;entryY=1;entryDx=0;entryDy=0;exitX=0.438;exitY=0.063;exitDx=0;exitDy=0;exitPerimeter=0;" parent="1" source="kpA3sOlLHsasUYpWddV5-11" target="kpA3sOlLHsasUYpWddV5-130" edge="1">
          <mxGeometry width="50" height="50" relative="1" as="geometry">
            <mxPoint x="204.26999999999998" y="512.5" as="sourcePoint" />
            <mxPoint x="254.26999999999998" y="462.5" as="targetPoint" />
            <Array as="points">
              <mxPoint x="221.98" y="510.5" />
            </Array>
          </mxGeometry>
        </mxCell>
        <mxCell id="kpA3sOlLHsasUYpWddV5-135" value="id" style="text;html=1;strokeColor=none;fillColor=none;align=left;verticalAlign=middle;whiteSpace=wrap;rounded=0;fontSize=9;" parent="1" vertex="1">
          <mxGeometry x="164.01999999999998" y="453.6100000000001" width="16.36" height="9.38" as="geometry" />
        </mxCell>
        <mxCell id="kpA3sOlLHsasUYpWddV5-136" value="" style="ellipse;whiteSpace=wrap;html=1;aspect=fixed;fillColor=#000000;strokeColor=#000000;fontColor=#000000;" parent="1" vertex="1">
          <mxGeometry x="175.58" y="453.61" width="11" height="11" as="geometry" />
        </mxCell>
        <mxCell id="kpA3sOlLHsasUYpWddV5-137" value="" style="endArrow=none;html=1;rounded=0;entryX=0.5;entryY=1;entryDx=0;entryDy=0;exitX=0;exitY=0;exitDx=0;exitDy=0;" parent="1" source="kpA3sOlLHsasUYpWddV5-11" target="kpA3sOlLHsasUYpWddV5-136" edge="1">
          <mxGeometry width="50" height="50" relative="1" as="geometry">
            <mxPoint x="194.26999999999998" y="502.5" as="sourcePoint" />
            <mxPoint x="244.26999999999998" y="452.5" as="targetPoint" />
            <Array as="points">
              <mxPoint x="180.98" y="523.5" />
            </Array>
          </mxGeometry>
        </mxCell>
        <mxCell id="kpA3sOlLHsasUYpWddV5-140" value="idNaturaleza" style="text;html=1;strokeColor=none;fillColor=none;align=left;verticalAlign=middle;whiteSpace=wrap;rounded=0;fontSize=9;" parent="1" vertex="1">
          <mxGeometry x="317.67" y="441.81" width="56.06" height="12.5" as="geometry" />
        </mxCell>
        <mxCell id="kpA3sOlLHsasUYpWddV5-141" value="" style="ellipse;whiteSpace=wrap;html=1;aspect=fixed;fillColor=#CCCCCC;strokeColor=#000000;fontColor=#000000;" parent="1" vertex="1">
          <mxGeometry x="370.8800000000001" y="443.31" width="11" height="11" as="geometry" />
        </mxCell>
        <mxCell id="kpA3sOlLHsasUYpWddV5-146" value="idSede" style="text;html=1;strokeColor=none;fillColor=none;align=left;verticalAlign=middle;whiteSpace=wrap;rounded=0;fontSize=9;" parent="1" vertex="1">
          <mxGeometry x="323.40000000000003" y="452.81" width="33.59" height="12.5" as="geometry" />
        </mxCell>
        <mxCell id="kpA3sOlLHsasUYpWddV5-147" value="" style="ellipse;whiteSpace=wrap;html=1;aspect=fixed;fillColor=#CCCCCC;strokeColor=#000000;fontColor=#000000;" parent="1" vertex="1">
          <mxGeometry x="354.95000000000016" y="454.30999999999995" width="11" height="11" as="geometry" />
        </mxCell>
        <mxCell id="kpA3sOlLHsasUYpWddV5-149" value="&lt;font style=&quot;font-size: 8px;&quot;&gt;&amp;nbsp; &amp;nbsp; &amp;nbsp; &amp;nbsp; &amp;nbsp; &amp;nbsp; TiEs-Cal&lt;/font&gt;" style="shape=rhombus;perimeter=rhombusPerimeter;whiteSpace=wrap;html=1;align=left;fontStyle=1;fontSize=10;" parent="1" vertex="1">
          <mxGeometry x="254.26999999999992" y="812.15" width="70" height="60" as="geometry" />
        </mxCell>
        <mxCell id="kpA3sOlLHsasUYpWddV5-150" value="ID" style="text;html=1;strokeColor=none;fillColor=none;align=center;verticalAlign=middle;whiteSpace=wrap;rounded=0;fontSize=8;fontStyle=1;" parent="1" vertex="1">
          <mxGeometry x="262.5199999999999" y="837.49" width="12.43" height="9.31" as="geometry" />
        </mxCell>
        <mxCell id="kpA3sOlLHsasUYpWddV5-151" value="1:N" style="text;html=1;strokeColor=none;fillColor=none;align=center;verticalAlign=middle;whiteSpace=wrap;rounded=0;fontSize=15;fontStyle=1;" parent="1" vertex="1">
          <mxGeometry x="278.95999999999987" y="790.3299999999999" width="22.43" height="20" as="geometry" />
        </mxCell>
        <mxCell id="kpA3sOlLHsasUYpWddV5-152" value="" style="endArrow=none;html=1;rounded=0;exitX=0.295;exitY=0.209;exitDx=0;exitDy=0;entryX=0.293;entryY=0.798;entryDx=0;entryDy=0;entryPerimeter=0;exitPerimeter=0;" parent="1" source="kpA3sOlLHsasUYpWddV5-149" target="kpA3sOlLHsasUYpWddV5-149" edge="1">
          <mxGeometry width="50" height="50" relative="1" as="geometry">
            <mxPoint x="274.95000000000005" y="826.6999999999994" as="sourcePoint" />
            <mxPoint x="274.95000000000005" y="856.6999999999994" as="targetPoint" />
          </mxGeometry>
        </mxCell>
        <mxCell id="kpA3sOlLHsasUYpWddV5-153" value="" style="endArrow=classic;html=1;rounded=0;entryX=0;entryY=0.5;entryDx=0;entryDy=0;exitX=1;exitY=0.5;exitDx=0;exitDy=0;" parent="1" source="kpA3sOlLHsasUYpWddV5-149" target="MroF9Ox0VDxHsYH3NFP8-69" edge="1">
          <mxGeometry width="50" height="50" relative="1" as="geometry">
            <mxPoint x="358.15999999999997" y="840.33" as="sourcePoint" />
            <mxPoint x="538.1600000000001" y="610.68" as="targetPoint" />
          </mxGeometry>
        </mxCell>
        <mxCell id="kpA3sOlLHsasUYpWddV5-154" value="" style="endArrow=classic;html=1;rounded=0;entryX=0.624;entryY=0.994;entryDx=0;entryDy=0;exitX=0;exitY=0.5;exitDx=0;exitDy=0;entryPerimeter=0;" parent="1" source="kpA3sOlLHsasUYpWddV5-149" target="MroF9Ox0VDxHsYH3NFP8-68" edge="1">
          <mxGeometry width="50" height="50" relative="1" as="geometry">
            <mxPoint x="454.27000000000004" y="662.5" as="sourcePoint" />
            <mxPoint x="504.27000000000004" y="612.5" as="targetPoint" />
            <Array as="points">
              <mxPoint x="234.26999999999998" y="842.5" />
            </Array>
          </mxGeometry>
        </mxCell>
        <mxCell id="kpA3sOlLHsasUYpWddV5-155" value="tiene" style="text;html=1;strokeColor=none;fillColor=none;align=left;verticalAlign=middle;whiteSpace=wrap;rounded=0;fontSize=9;" parent="1" vertex="1">
          <mxGeometry x="245.42999999999995" y="695.4499999999999" width="29.52" height="12.5" as="geometry" />
        </mxCell>
        <mxCell id="kpA3sOlLHsasUYpWddV5-156" value="corresponde_a" style="text;html=1;strokeColor=none;fillColor=none;align=left;verticalAlign=middle;whiteSpace=wrap;rounded=0;fontSize=9;" parent="1" vertex="1">
          <mxGeometry x="338.8400000000002" y="857.8299999999999" width="50" height="12.5" as="geometry" />
        </mxCell>
        <mxCell id="kpA3sOlLHsasUYpWddV5-157" value="(0,n)" style="text;html=1;strokeColor=none;fillColor=none;align=left;verticalAlign=middle;whiteSpace=wrap;rounded=0;fontSize=9;" parent="1" vertex="1">
          <mxGeometry x="369.2499999999999" y="828.9699999999999" width="22.5" height="6.7" as="geometry" />
        </mxCell>
        <mxCell id="kpA3sOlLHsasUYpWddV5-158" value="(1,1)" style="text;html=1;strokeColor=none;fillColor=none;align=left;verticalAlign=middle;whiteSpace=wrap;rounded=0;fontSize=9;" parent="1" vertex="1">
          <mxGeometry x="203.59000000000074" y="695.4500000000005" width="25.5" height="12.5" as="geometry" />
        </mxCell>
        <mxCell id="kpA3sOlLHsasUYpWddV5-162" value="&lt;font style=&quot;font-size: 8px;&quot;&gt;&amp;nbsp; &amp;nbsp; Int-Nat&lt;/font&gt;" style="shape=rhombus;perimeter=rhombusPerimeter;whiteSpace=wrap;html=1;align=left;fontStyle=1;fontSize=10;" parent="1" vertex="1">
          <mxGeometry x="65.97999999999996" y="627.27" width="70" height="60" as="geometry" />
        </mxCell>
        <mxCell id="kpA3sOlLHsasUYpWddV5-163" value="ID" style="text;html=1;strokeColor=none;fillColor=none;align=center;verticalAlign=middle;whiteSpace=wrap;rounded=0;fontSize=8;fontStyle=1;" parent="1" vertex="1">
          <mxGeometry x="115.54999999999991" y="653.62" width="12.43" height="9.31" as="geometry" />
        </mxCell>
        <mxCell id="kpA3sOlLHsasUYpWddV5-164" value="N:1" style="text;html=1;strokeColor=none;fillColor=none;align=center;verticalAlign=middle;whiteSpace=wrap;rounded=0;fontSize=15;fontStyle=1;" parent="1" vertex="1">
          <mxGeometry x="89.76999999999991" y="687.9499999999999" width="22.43" height="20" as="geometry" />
        </mxCell>
        <mxCell id="kpA3sOlLHsasUYpWddV5-165" value="" style="endArrow=none;html=1;rounded=0;exitX=0;exitY=0;exitDx=0;exitDy=0;entryX=0;entryY=1;entryDx=0;entryDy=0;" parent="1" edge="1">
          <mxGeometry width="50" height="50" relative="1" as="geometry">
            <mxPoint x="116.55000000000003" y="642.2699999999994" as="sourcePoint" />
            <mxPoint x="116.55000000000003" y="672.2699999999994" as="targetPoint" />
          </mxGeometry>
        </mxCell>
        <mxCell id="kpA3sOlLHsasUYpWddV5-166" value="" style="endArrow=classic;html=1;rounded=0;entryX=0;entryY=0.5;entryDx=0;entryDy=0;exitX=1;exitY=0.5;exitDx=0;exitDy=0;" parent="1" source="kpA3sOlLHsasUYpWddV5-162" target="MroF9Ox0VDxHsYH3NFP8-68" edge="1">
          <mxGeometry width="50" height="50" relative="1" as="geometry">
            <mxPoint x="144.26999999999998" y="682.5" as="sourcePoint" />
            <mxPoint x="194.26999999999998" y="632.5" as="targetPoint" />
          </mxGeometry>
        </mxCell>
        <mxCell id="kpA3sOlLHsasUYpWddV5-167" value="" style="endArrow=classic;html=1;rounded=0;exitX=0.5;exitY=0;exitDx=0;exitDy=0;entryX=0.328;entryY=1.014;entryDx=0;entryDy=0;entryPerimeter=0;" parent="1" source="kpA3sOlLHsasUYpWddV5-162" target="MroF9Ox0VDxHsYH3NFP8-74" edge="1">
          <mxGeometry width="50" height="50" relative="1" as="geometry">
            <mxPoint x="144.26999999999998" y="682.5" as="sourcePoint" />
            <mxPoint x="124.27" y="592.5" as="targetPoint" />
          </mxGeometry>
        </mxCell>
        <mxCell id="kpA3sOlLHsasUYpWddV5-168" value="(1,1)" style="text;html=1;strokeColor=none;fillColor=none;align=left;verticalAlign=middle;whiteSpace=wrap;rounded=0;fontSize=9;" parent="1" vertex="1">
          <mxGeometry x="142.88000000000062" y="640.0000000000006" width="25.5" height="12.5" as="geometry" />
        </mxCell>
        <mxCell id="kpA3sOlLHsasUYpWddV5-169" value="(0,n)" style="text;html=1;strokeColor=none;fillColor=none;align=left;verticalAlign=middle;whiteSpace=wrap;rounded=0;fontSize=9;" parent="1" vertex="1">
          <mxGeometry x="73.02" y="576.25" width="22.5" height="6.7" as="geometry" />
        </mxCell>
        <mxCell id="kpA3sOlLHsasUYpWddV5-170" value="tiene" style="text;html=1;strokeColor=none;fillColor=none;align=left;verticalAlign=middle;whiteSpace=wrap;rounded=0;fontSize=9;" parent="1" vertex="1">
          <mxGeometry x="106.99999999999996" y="576.25" width="29.52" height="12.5" as="geometry" />
        </mxCell>
        <mxCell id="kpA3sOlLHsasUYpWddV5-171" value="corresponde_a" style="text;html=1;strokeColor=none;fillColor=none;align=left;verticalAlign=middle;whiteSpace=wrap;rounded=0;fontSize=9;" parent="1" vertex="1">
          <mxGeometry x="109.1600000000001" y="677.1500000000001" width="50" height="12.5" as="geometry" />
        </mxCell>
        <mxCell id="16CfGthC78HUpN7i-QSn-2" value="1:N" style="text;html=1;strokeColor=none;fillColor=none;align=center;verticalAlign=middle;whiteSpace=wrap;rounded=0;fontSize=15;fontStyle=1;" parent="1" vertex="1">
          <mxGeometry x="644.4399999999998" y="117.49999999999989" width="22.43" height="20" as="geometry" />
        </mxCell>
        <mxCell id="16CfGthC78HUpN7i-QSn-3" value="&lt;font style=&quot;font-size: 8px;&quot;&gt;&amp;nbsp; &amp;nbsp; &amp;nbsp; &amp;nbsp; Sede-Usu&lt;/font&gt;" style="shape=rhombus;perimeter=rhombusPerimeter;whiteSpace=wrap;html=1;align=left;fontStyle=1;fontSize=10;" parent="1" vertex="1">
          <mxGeometry x="620.65" y="140" width="70.42" height="60" as="geometry" />
        </mxCell>
        <mxCell id="16CfGthC78HUpN7i-QSn-4" value="ID" style="text;html=1;strokeColor=none;fillColor=none;align=center;verticalAlign=middle;whiteSpace=wrap;rounded=0;fontSize=8;fontStyle=1;" parent="1" vertex="1">
          <mxGeometry x="623.17" y="165.34000000000003" width="12.43" height="9.31" as="geometry" />
        </mxCell>
        <mxCell id="16CfGthC78HUpN7i-QSn-5" value="" style="endArrow=none;html=1;rounded=0;exitX=0.211;exitY=0.294;exitDx=0;exitDy=0;entryX=0.214;entryY=0.715;entryDx=0;entryDy=0;exitPerimeter=0;entryPerimeter=0;" parent="1" source="16CfGthC78HUpN7i-QSn-3" target="16CfGthC78HUpN7i-QSn-3" edge="1">
          <mxGeometry width="50" height="50" relative="1" as="geometry">
            <mxPoint x="633.23072" y="156.98000000000002" as="sourcePoint" />
            <mxPoint x="633.08988" y="183.0200000000001" as="targetPoint" />
          </mxGeometry>
        </mxCell>
        <mxCell id="16CfGthC78HUpN7i-QSn-6" value="tiene" style="text;html=1;strokeColor=none;fillColor=none;align=left;verticalAlign=middle;whiteSpace=wrap;rounded=0;fontSize=9;" parent="1" vertex="1">
          <mxGeometry x="629.25" y="200" width="29.52" height="12.5" as="geometry" />
        </mxCell>
        <mxCell id="16CfGthC78HUpN7i-QSn-7" value="corresponde_a" style="text;html=1;strokeColor=none;fillColor=none;align=left;verticalAlign=middle;whiteSpace=wrap;rounded=0;fontSize=9;" parent="1" vertex="1">
          <mxGeometry x="555.9600000000002" y="174.65000000000012" width="50" height="12.5" as="geometry" />
        </mxCell>
        <mxCell id="16CfGthC78HUpN7i-QSn-8" value="(1,1)" style="text;html=1;strokeColor=none;fillColor=none;align=left;verticalAlign=middle;whiteSpace=wrap;rounded=0;fontSize=9;" parent="1" vertex="1">
          <mxGeometry x="597.6700000000006" y="152.8400000000006" width="25.5" height="12.5" as="geometry" />
        </mxCell>
        <mxCell id="16CfGthC78HUpN7i-QSn-9" value="(0,n)" style="text;html=1;strokeColor=none;fillColor=none;align=left;verticalAlign=middle;whiteSpace=wrap;rounded=0;fontSize=9;" parent="1" vertex="1">
          <mxGeometry x="657.67" y="202.9" width="22.5" height="6.7" as="geometry" />
        </mxCell>
        <mxCell id="16CfGthC78HUpN7i-QSn-10" value="" style="endArrow=classic;html=1;rounded=0;entryX=1;entryY=0.5;entryDx=0;entryDy=0;exitX=0;exitY=0.5;exitDx=0;exitDy=0;" parent="1" source="16CfGthC78HUpN7i-QSn-3" target="MroF9Ox0VDxHsYH3NFP8-71" edge="1">
          <mxGeometry width="50" height="50" relative="1" as="geometry">
            <mxPoint x="564.11" y="360" as="sourcePoint" />
            <mxPoint x="614.11" y="310" as="targetPoint" />
          </mxGeometry>
        </mxCell>
        <mxCell id="16CfGthC78HUpN7i-QSn-11" value="" style="endArrow=classic;html=1;rounded=0;exitX=0.5;exitY=1;exitDx=0;exitDy=0;entryX=0.084;entryY=0.009;entryDx=0;entryDy=0;entryPerimeter=0;" parent="1" source="16CfGthC78HUpN7i-QSn-3" target="kpA3sOlLHsasUYpWddV5-62" edge="1">
          <mxGeometry width="50" height="50" relative="1" as="geometry">
            <mxPoint x="564.11" y="360" as="sourcePoint" />
            <mxPoint x="655.3199999999998" y="311.84000000000003" as="targetPoint" />
          </mxGeometry>
        </mxCell>
        <mxCell id="16CfGthC78HUpN7i-QSn-12" value="descripciÃ³nCalidad" style="text;html=1;strokeColor=none;fillColor=none;align=left;verticalAlign=middle;whiteSpace=wrap;rounded=0;fontSize=9;" parent="1" vertex="1">
          <mxGeometry x="364.01" y="386.89" width="80.91" height="12.5" as="geometry" />
        </mxCell>
        <mxCell id="16CfGthC78HUpN7i-QSn-13" value="" style="ellipse;whiteSpace=wrap;html=1;aspect=fixed;fillColor=#FFFFFF;strokeColor=#000000;fontColor=#000000;" parent="1" vertex="1">
          <mxGeometry x="444.1100000000002" y="388.39" width="11" height="11" as="geometry" />
        </mxCell>
        <mxCell id="16CfGthC78HUpN7i-QSn-14" value="Ã³rgano" style="text;html=1;strokeColor=none;fillColor=none;align=left;verticalAlign=middle;whiteSpace=wrap;rounded=0;fontSize=9;" parent="1" vertex="1">
          <mxGeometry x="398.15000000000003" y="399.39" width="28.4" height="12.5" as="geometry" />
        </mxCell>
        <mxCell id="16CfGthC78HUpN7i-QSn-15" value="" style="ellipse;whiteSpace=wrap;html=1;aspect=fixed;fillColor=#FFFFFF;strokeColor=#000000;fontColor=#000000;" parent="1" vertex="1">
          <mxGeometry x="430.65000000000015" y="400.89" width="11" height="11" as="geometry" />
        </mxCell>
        <mxCell id="16CfGthC78HUpN7i-QSn-16" value="cÃ³digo" style="text;html=1;strokeColor=none;fillColor=none;align=left;verticalAlign=middle;whiteSpace=wrap;rounded=0;fontSize=9;" parent="1" vertex="1">
          <mxGeometry x="368.43" y="421.62" width="31.94" height="12.5" as="geometry" />
        </mxCell>
        <mxCell id="16CfGthC78HUpN7i-QSn-17" value="" style="ellipse;whiteSpace=wrap;html=1;aspect=fixed;fillColor=#FFFFFF;strokeColor=#000000;fontColor=#000000;" parent="1" vertex="1">
          <mxGeometry x="400.3700000000002" y="423.12" width="11" height="11" as="geometry" />
        </mxCell>
        <mxCell id="16CfGthC78HUpN7i-QSn-18" value="fecha" style="text;html=1;strokeColor=none;fillColor=none;align=left;verticalAlign=middle;whiteSpace=wrap;rounded=0;fontSize=9;" parent="1" vertex="1">
          <mxGeometry x="387.23" y="411.52" width="26.71" height="12.5" as="geometry" />
        </mxCell>
        <mxCell id="16CfGthC78HUpN7i-QSn-19" value="" style="ellipse;whiteSpace=wrap;html=1;aspect=fixed;fillColor=#FFFFFF;strokeColor=#000000;fontColor=#000000;" parent="1" vertex="1">
          <mxGeometry x="415.5500000000001" y="412.27" width="11" height="11" as="geometry" />
        </mxCell>
        <mxCell id="16CfGthC78HUpN7i-QSn-22" value="idCalidad" style="text;html=1;strokeColor=none;fillColor=none;align=left;verticalAlign=middle;whiteSpace=wrap;rounded=0;fontSize=9;" parent="1" vertex="1">
          <mxGeometry x="346.12000000000006" y="432.62" width="41.11" height="12.5" as="geometry" />
        </mxCell>
        <mxCell id="16CfGthC78HUpN7i-QSn-23" value="" style="ellipse;whiteSpace=wrap;html=1;aspect=fixed;fillColor=#CCCCCC;strokeColor=#000000;fontColor=#000000;" parent="1" vertex="1">
          <mxGeometry x="385.9700000000002" y="434.11999999999995" width="11" height="11" as="geometry" />
        </mxCell>
        <mxCell id="16CfGthC78HUpN7i-QSn-27" value="idUsuario" style="text;html=1;strokeColor=none;fillColor=none;align=left;verticalAlign=middle;whiteSpace=wrap;rounded=0;fontSize=9;" parent="1" vertex="1">
          <mxGeometry x="280.08000000000004" y="476.36" width="40.2" height="12.5" as="geometry" />
        </mxCell>
        <mxCell id="16CfGthC78HUpN7i-QSn-28" value="" style="ellipse;whiteSpace=wrap;html=1;aspect=fixed;fillColor=#CCCCCC;strokeColor=#000000;fontColor=#000000;" parent="1" vertex="1">
          <mxGeometry x="321.7200000000002" y="477.86" width="11" height="11" as="geometry" />
        </mxCell>
        <mxCell id="16CfGthC78HUpN7i-QSn-29" value="idFormato" style="text;html=1;strokeColor=none;fillColor=none;align=left;verticalAlign=middle;whiteSpace=wrap;rounded=0;fontSize=9;" parent="1" vertex="1">
          <mxGeometry x="295.1600000000001" y="464.61" width="40.2" height="12.5" as="geometry" />
        </mxCell>
        <mxCell id="16CfGthC78HUpN7i-QSn-30" value="" style="ellipse;whiteSpace=wrap;html=1;aspect=fixed;fillColor=#CCCCCC;strokeColor=#000000;fontColor=#000000;" parent="1" vertex="1">
          <mxGeometry x="338.8400000000002" y="465.36" width="11" height="11" as="geometry" />
        </mxCell>
        <mxCell id="16CfGthC78HUpN7i-QSn-31" value="" style="endArrow=none;html=1;rounded=0;entryX=0.5;entryY=1;entryDx=0;entryDy=0;exitX=0.626;exitY=-0.006;exitDx=0;exitDy=0;exitPerimeter=0;" parent="1" source="MroF9Ox0VDxHsYH3NFP8-73" target="16CfGthC78HUpN7i-QSn-13" edge="1">
          <mxGeometry width="50" height="50" relative="1" as="geometry">
            <mxPoint x="374.98" y="502.5" as="sourcePoint" />
            <mxPoint x="314.98" y="462.5" as="targetPoint" />
          </mxGeometry>
        </mxCell>
        <mxCell id="16CfGthC78HUpN7i-QSn-32" value="" style="endArrow=none;html=1;rounded=0;entryX=0.5;entryY=1;entryDx=0;entryDy=0;exitX=0.538;exitY=0.001;exitDx=0;exitDy=0;exitPerimeter=0;" parent="1" source="MroF9Ox0VDxHsYH3NFP8-73" target="16CfGthC78HUpN7i-QSn-15" edge="1">
          <mxGeometry width="50" height="50" relative="1" as="geometry">
            <mxPoint x="354.98" y="502.5" as="sourcePoint" />
            <mxPoint x="404.98" y="452.5" as="targetPoint" />
          </mxGeometry>
        </mxCell>
        <mxCell id="16CfGthC78HUpN7i-QSn-33" value="" style="endArrow=none;html=1;rounded=0;entryX=0.5;entryY=1;entryDx=0;entryDy=0;exitX=0.439;exitY=0.003;exitDx=0;exitDy=0;exitPerimeter=0;" parent="1" source="MroF9Ox0VDxHsYH3NFP8-73" target="16CfGthC78HUpN7i-QSn-19" edge="1">
          <mxGeometry width="50" height="50" relative="1" as="geometry">
            <mxPoint x="354.98" y="502.5" as="sourcePoint" />
            <mxPoint x="404.98" y="452.5" as="targetPoint" />
          </mxGeometry>
        </mxCell>
        <mxCell id="16CfGthC78HUpN7i-QSn-34" value="" style="endArrow=none;html=1;rounded=0;entryX=0.5;entryY=1;entryDx=0;entryDy=0;exitX=0.338;exitY=0.005;exitDx=0;exitDy=0;exitPerimeter=0;" parent="1" source="MroF9Ox0VDxHsYH3NFP8-73" target="16CfGthC78HUpN7i-QSn-17" edge="1">
          <mxGeometry width="50" height="50" relative="1" as="geometry">
            <mxPoint x="354.98" y="502.5" as="sourcePoint" />
            <mxPoint x="404.98" y="452.5" as="targetPoint" />
          </mxGeometry>
        </mxCell>
        <mxCell id="16CfGthC78HUpN7i-QSn-35" value="" style="endArrow=none;html=1;rounded=0;entryX=0.5;entryY=1;entryDx=0;entryDy=0;exitX=0.244;exitY=0.003;exitDx=0;exitDy=0;exitPerimeter=0;" parent="1" source="MroF9Ox0VDxHsYH3NFP8-73" target="16CfGthC78HUpN7i-QSn-23" edge="1">
          <mxGeometry width="50" height="50" relative="1" as="geometry">
            <mxPoint x="354.98" y="502.5" as="sourcePoint" />
            <mxPoint x="404.98" y="452.5" as="targetPoint" />
          </mxGeometry>
        </mxCell>
        <mxCell id="16CfGthC78HUpN7i-QSn-36" value="" style="endArrow=none;html=1;rounded=0;entryX=0.5;entryY=1;entryDx=0;entryDy=0;exitX=0.146;exitY=0.001;exitDx=0;exitDy=0;exitPerimeter=0;" parent="1" source="MroF9Ox0VDxHsYH3NFP8-73" target="kpA3sOlLHsasUYpWddV5-141" edge="1">
          <mxGeometry width="50" height="50" relative="1" as="geometry">
            <mxPoint x="354.98" y="502.5" as="sourcePoint" />
            <mxPoint x="404.98" y="452.5" as="targetPoint" />
          </mxGeometry>
        </mxCell>
        <mxCell id="16CfGthC78HUpN7i-QSn-37" value="" style="endArrow=none;html=1;rounded=0;entryX=0.5;entryY=1;entryDx=0;entryDy=0;exitX=0.043;exitY=-0.005;exitDx=0;exitDy=0;exitPerimeter=0;" parent="1" source="MroF9Ox0VDxHsYH3NFP8-73" target="kpA3sOlLHsasUYpWddV5-147" edge="1">
          <mxGeometry width="50" height="50" relative="1" as="geometry">
            <mxPoint x="354.98" y="502.5" as="sourcePoint" />
            <mxPoint x="404.98" y="452.5" as="targetPoint" />
          </mxGeometry>
        </mxCell>
        <mxCell id="16CfGthC78HUpN7i-QSn-38" value="" style="endArrow=none;html=1;rounded=0;exitX=0.5;exitY=1;exitDx=0;exitDy=0;entryX=0;entryY=0.072;entryDx=0;entryDy=0;entryPerimeter=0;" parent="1" source="16CfGthC78HUpN7i-QSn-30" target="MroF9Ox0VDxHsYH3NFP8-73" edge="1">
          <mxGeometry width="50" height="50" relative="1" as="geometry">
            <mxPoint x="354.98" y="502.5" as="sourcePoint" />
            <mxPoint x="404.98" y="452.5" as="targetPoint" />
            <Array as="points">
              <mxPoint x="344.98" y="516.5" />
            </Array>
          </mxGeometry>
        </mxCell>
        <mxCell id="16CfGthC78HUpN7i-QSn-39" value="" style="endArrow=none;html=1;rounded=0;entryX=0.5;entryY=1;entryDx=0;entryDy=0;exitX=0;exitY=0.178;exitDx=0;exitDy=0;exitPerimeter=0;" parent="1" source="MroF9Ox0VDxHsYH3NFP8-73" target="16CfGthC78HUpN7i-QSn-28" edge="1">
          <mxGeometry width="50" height="50" relative="1" as="geometry">
            <mxPoint x="354.98" y="522.5" as="sourcePoint" />
            <mxPoint x="404.98" y="472.5" as="targetPoint" />
            <Array as="points">
              <mxPoint x="326.98" y="522.5" />
            </Array>
          </mxGeometry>
        </mxCell>
        <mxCell id="16CfGthC78HUpN7i-QSn-40" value="" style="endArrow=none;html=1;rounded=0;exitX=0.5;exitY=1;exitDx=0;exitDy=0;entryX=0;entryY=0.34;entryDx=0;entryDy=0;entryPerimeter=0;" parent="1" source="kpA3sOlLHsasUYpWddV5-126" target="MroF9Ox0VDxHsYH3NFP8-73" edge="1">
          <mxGeometry width="50" height="50" relative="1" as="geometry">
            <mxPoint x="354.98" y="522.5" as="sourcePoint" />
            <mxPoint x="404.98" y="472.5" as="targetPoint" />
            <Array as="points">
              <mxPoint x="311.98" y="532.5" />
            </Array>
          </mxGeometry>
        </mxCell>
        <mxCell id="16CfGthC78HUpN7i-QSn-49" value="idNaturaleza" style="text;html=1;strokeColor=none;fillColor=none;align=left;verticalAlign=middle;whiteSpace=wrap;rounded=0;fontSize=9;" parent="1" vertex="1">
          <mxGeometry x="42" y="468.88" width="56.59" height="12.5" as="geometry" />
        </mxCell>
        <mxCell id="16CfGthC78HUpN7i-QSn-50" value="" style="ellipse;whiteSpace=wrap;html=1;aspect=fixed;fillColor=#CCCCCC;strokeColor=#000000;fontColor=#000000;" parent="1" vertex="1">
          <mxGeometry x="101.20000000000017" y="469.63" width="11" height="11" as="geometry" />
        </mxCell>
        <mxCell id="16CfGthC78HUpN7i-QSn-51" value="cÃ³digo" style="text;html=1;strokeColor=none;fillColor=none;align=left;verticalAlign=middle;whiteSpace=wrap;rounded=0;fontSize=9;" parent="1" vertex="1">
          <mxGeometry x="55.19000000000001" y="481.63" width="28.4" height="12.5" as="geometry" />
        </mxCell>
        <mxCell id="16CfGthC78HUpN7i-QSn-52" value="" style="ellipse;whiteSpace=wrap;html=1;aspect=fixed;fillColor=#FFFFFF;strokeColor=#000000;fontColor=#000000;" parent="1" vertex="1">
          <mxGeometry x="84.52000000000012" y="482.88" width="11" height="11" as="geometry" />
        </mxCell>
        <mxCell id="16CfGthC78HUpN7i-QSn-53" value="texto" style="text;html=1;strokeColor=none;fillColor=none;align=left;verticalAlign=middle;whiteSpace=wrap;rounded=0;fontSize=9;" parent="1" vertex="1">
          <mxGeometry x="46.31" y="493.75" width="26.71" height="12.5" as="geometry" />
        </mxCell>
        <mxCell id="16CfGthC78HUpN7i-QSn-54" value="" style="ellipse;whiteSpace=wrap;html=1;aspect=fixed;fillColor=#FFFFFF;strokeColor=#000000;fontColor=#000000;" parent="1" vertex="1">
          <mxGeometry x="68.38000000000011" y="494.88" width="11" height="11" as="geometry" />
        </mxCell>
        <mxCell id="16CfGthC78HUpN7i-QSn-55" value="" style="endArrow=none;html=1;rounded=0;entryX=0.5;entryY=1;entryDx=0;entryDy=0;exitX=0.544;exitY=-0.005;exitDx=0;exitDy=0;exitPerimeter=0;" parent="1" source="MroF9Ox0VDxHsYH3NFP8-74" target="kpA3sOlLHsasUYpWddV5-106" edge="1">
          <mxGeometry width="50" height="50" relative="1" as="geometry">
            <mxPoint x="4.980000000000004" y="552.5" as="sourcePoint" />
            <mxPoint x="54.980000000000004" y="502.5" as="targetPoint" />
          </mxGeometry>
        </mxCell>
        <mxCell id="16CfGthC78HUpN7i-QSn-56" value="" style="endArrow=none;html=1;rounded=0;entryX=0.5;entryY=1;entryDx=0;entryDy=0;exitX=0.389;exitY=0.002;exitDx=0;exitDy=0;exitPerimeter=0;" parent="1" source="MroF9Ox0VDxHsYH3NFP8-74" target="16CfGthC78HUpN7i-QSn-50" edge="1">
          <mxGeometry width="50" height="50" relative="1" as="geometry">
            <mxPoint x="24.98" y="532.5" as="sourcePoint" />
            <mxPoint x="74.98" y="482.5" as="targetPoint" />
          </mxGeometry>
        </mxCell>
        <mxCell id="16CfGthC78HUpN7i-QSn-57" value="" style="endArrow=none;html=1;rounded=0;entryX=0.5;entryY=1;entryDx=0;entryDy=0;exitX=0.217;exitY=0.002;exitDx=0;exitDy=0;exitPerimeter=0;" parent="1" source="MroF9Ox0VDxHsYH3NFP8-74" target="16CfGthC78HUpN7i-QSn-52" edge="1">
          <mxGeometry width="50" height="50" relative="1" as="geometry">
            <mxPoint x="24.98" y="532.5" as="sourcePoint" />
            <mxPoint x="74.98" y="482.5" as="targetPoint" />
          </mxGeometry>
        </mxCell>
        <mxCell id="16CfGthC78HUpN7i-QSn-58" value="" style="endArrow=none;html=1;rounded=0;entryX=0.5;entryY=1;entryDx=0;entryDy=0;exitX=0.053;exitY=-0.003;exitDx=0;exitDy=0;exitPerimeter=0;" parent="1" source="MroF9Ox0VDxHsYH3NFP8-74" target="16CfGthC78HUpN7i-QSn-54" edge="1">
          <mxGeometry width="50" height="50" relative="1" as="geometry">
            <mxPoint x="24.98" y="532.5" as="sourcePoint" />
            <mxPoint x="74.98" y="482.5" as="targetPoint" />
          </mxGeometry>
        </mxCell>
        <mxCell id="16CfGthC78HUpN7i-QSn-59" value="idMuestra" style="text;html=1;strokeColor=none;fillColor=none;align=left;verticalAlign=middle;whiteSpace=wrap;rounded=0;fontSize=9;" parent="1" vertex="1">
          <mxGeometry x="713.5799999999999" y="547.6500000000001" width="42.7" height="12.5" as="geometry" />
        </mxCell>
        <mxCell id="16CfGthC78HUpN7i-QSn-60" value="" style="ellipse;whiteSpace=wrap;html=1;aspect=fixed;fillColor=#CCCCCC;strokeColor=#000000;fontColor=#000000;" parent="1" vertex="1">
          <mxGeometry x="701.3700000000001" y="548.4" width="11" height="11" as="geometry" />
        </mxCell>
        <mxCell id="16CfGthC78HUpN7i-QSn-61" value="ruta" style="text;html=1;strokeColor=none;fillColor=none;align=left;verticalAlign=middle;whiteSpace=wrap;rounded=0;fontSize=9;" parent="1" vertex="1">
          <mxGeometry x="733.81" y="558.6500000000001" width="16.2" height="12.5" as="geometry" />
        </mxCell>
        <mxCell id="16CfGthC78HUpN7i-QSn-62" value="" style="ellipse;whiteSpace=wrap;html=1;aspect=fixed;fillColor=#FFFFFF;strokeColor=#000000;fontColor=#000000;" parent="1" vertex="1">
          <mxGeometry x="722.8100000000002" y="560.1500000000001" width="11" height="11" as="geometry" />
        </mxCell>
        <mxCell id="16CfGthC78HUpN7i-QSn-63" value="zoom" style="text;html=1;strokeColor=none;fillColor=none;align=left;verticalAlign=middle;whiteSpace=wrap;rounded=0;fontSize=9;" parent="1" vertex="1">
          <mxGeometry x="755.12" y="569.6500000000001" width="26.71" height="12.5" as="geometry" />
        </mxCell>
        <mxCell id="16CfGthC78HUpN7i-QSn-64" value="" style="ellipse;whiteSpace=wrap;html=1;aspect=fixed;fillColor=#FFFFFF;strokeColor=#000000;fontColor=#000000;" parent="1" vertex="1">
          <mxGeometry x="743.07" y="571.1500000000001" width="11" height="11" as="geometry" />
        </mxCell>
        <mxCell id="16CfGthC78HUpN7i-QSn-65" value="" style="endArrow=none;html=1;rounded=0;entryX=0.5;entryY=1;entryDx=0;entryDy=0;exitX=0.177;exitY=0.001;exitDx=0;exitDy=0;exitPerimeter=0;" parent="1" source="kpA3sOlLHsasUYpWddV5-65" target="kpA3sOlLHsasUYpWddV5-90" edge="1">
          <mxGeometry width="50" height="50" relative="1" as="geometry">
            <mxPoint x="706.28" y="605.45" as="sourcePoint" />
            <mxPoint x="756.28" y="555.45" as="targetPoint" />
          </mxGeometry>
        </mxCell>
        <mxCell id="16CfGthC78HUpN7i-QSn-66" value="" style="endArrow=none;html=1;rounded=0;entryX=0.5;entryY=1;entryDx=0;entryDy=0;exitX=0.352;exitY=-0.005;exitDx=0;exitDy=0;exitPerimeter=0;" parent="1" source="kpA3sOlLHsasUYpWddV5-65" target="16CfGthC78HUpN7i-QSn-60" edge="1">
          <mxGeometry width="50" height="50" relative="1" as="geometry">
            <mxPoint x="706.28" y="605.45" as="sourcePoint" />
            <mxPoint x="756.28" y="555.45" as="targetPoint" />
          </mxGeometry>
        </mxCell>
        <mxCell id="16CfGthC78HUpN7i-QSn-67" value="" style="endArrow=none;html=1;rounded=0;entryX=0.5;entryY=1;entryDx=0;entryDy=0;exitX=0.532;exitY=0.003;exitDx=0;exitDy=0;exitPerimeter=0;" parent="1" source="kpA3sOlLHsasUYpWddV5-65" target="16CfGthC78HUpN7i-QSn-62" edge="1">
          <mxGeometry width="50" height="50" relative="1" as="geometry">
            <mxPoint x="706.28" y="605.45" as="sourcePoint" />
            <mxPoint x="756.28" y="555.45" as="targetPoint" />
          </mxGeometry>
        </mxCell>
        <mxCell id="16CfGthC78HUpN7i-QSn-68" value="" style="endArrow=none;html=1;rounded=0;entryX=0.5;entryY=1;entryDx=0;entryDy=0;exitX=0.701;exitY=0.001;exitDx=0;exitDy=0;exitPerimeter=0;" parent="1" source="kpA3sOlLHsasUYpWddV5-65" target="16CfGthC78HUpN7i-QSn-64" edge="1">
          <mxGeometry width="50" height="50" relative="1" as="geometry">
            <mxPoint x="706.28" y="605.45" as="sourcePoint" />
            <mxPoint x="756.28" y="555.45" as="targetPoint" />
          </mxGeometry>
        </mxCell>
        <mxCell id="16CfGthC78HUpN7i-QSn-69" value="nombre" style="text;html=1;strokeColor=none;fillColor=none;align=left;verticalAlign=middle;whiteSpace=wrap;rounded=0;fontSize=9;" parent="1" vertex="1">
          <mxGeometry x="477.84000000000003" y="110.5" width="28.4" height="12.5" as="geometry" />
        </mxCell>
        <mxCell id="16CfGthC78HUpN7i-QSn-70" value="" style="ellipse;whiteSpace=wrap;html=1;aspect=fixed;fillColor=#FFFFFF;strokeColor=#000000;fontColor=#000000;" parent="1" vertex="1">
          <mxGeometry x="466.84000000000015" y="112" width="11" height="11" as="geometry" />
        </mxCell>
        <mxCell id="16CfGthC78HUpN7i-QSn-71" value="cÃ³digo" style="text;html=1;strokeColor=none;fillColor=none;align=left;verticalAlign=middle;whiteSpace=wrap;rounded=0;fontSize=9;" parent="1" vertex="1">
          <mxGeometry x="454.30000000000007" y="98" width="26.71" height="12.5" as="geometry" />
        </mxCell>
        <mxCell id="16CfGthC78HUpN7i-QSn-72" value="" style="ellipse;whiteSpace=wrap;html=1;aspect=fixed;fillColor=#FFFFFF;strokeColor=#000000;fontColor=#000000;" parent="1" vertex="1">
          <mxGeometry x="444.1100000000001" y="101" width="11" height="11" as="geometry" />
        </mxCell>
        <mxCell id="16CfGthC78HUpN7i-QSn-73" value="" style="endArrow=none;html=1;rounded=0;entryX=0.5;entryY=1;entryDx=0;entryDy=0;" parent="1" target="16CfGthC78HUpN7i-QSn-70" edge="1">
          <mxGeometry width="50" height="50" relative="1" as="geometry">
            <mxPoint x="472.11" y="140" as="sourcePoint" />
            <mxPoint x="494.11" y="120" as="targetPoint" />
          </mxGeometry>
        </mxCell>
        <mxCell id="16CfGthC78HUpN7i-QSn-74" value="" style="endArrow=none;html=1;rounded=0;entryX=0.5;entryY=1;entryDx=0;entryDy=0;exitX=0.305;exitY=-0.009;exitDx=0;exitDy=0;exitPerimeter=0;" parent="1" source="MroF9Ox0VDxHsYH3NFP8-71" target="16CfGthC78HUpN7i-QSn-72" edge="1">
          <mxGeometry width="50" height="50" relative="1" as="geometry">
            <mxPoint x="444.11" y="170" as="sourcePoint" />
            <mxPoint x="494.11" y="120" as="targetPoint" />
          </mxGeometry>
        </mxCell>
        <mxCell id="16CfGthC78HUpN7i-QSn-75" value="nombre" style="text;html=1;strokeColor=none;fillColor=none;align=left;verticalAlign=middle;whiteSpace=wrap;rounded=0;fontSize=9;" parent="1" vertex="1">
          <mxGeometry x="145.2" y="299.06" width="32.42" height="12.5" as="geometry" />
        </mxCell>
        <mxCell id="16CfGthC78HUpN7i-QSn-76" value="" style="ellipse;whiteSpace=wrap;html=1;aspect=fixed;fillColor=#FFFFFF;strokeColor=#000000;fontColor=#000000;" parent="1" vertex="1">
          <mxGeometry x="135.0200000000001" y="303.56" width="11" height="11" as="geometry" />
        </mxCell>
        <mxCell id="16CfGthC78HUpN7i-QSn-77" value="" style="endArrow=none;html=1;rounded=0;entryX=0.5;entryY=1;entryDx=0;entryDy=0;exitX=0.476;exitY=0.007;exitDx=0;exitDy=0;exitPerimeter=0;" parent="1" source="MroF9Ox0VDxHsYH3NFP8-70" target="16CfGthC78HUpN7i-QSn-76" edge="1">
          <mxGeometry width="50" height="50" relative="1" as="geometry">
            <mxPoint x="174.29999999999998" y="389.38" as="sourcePoint" />
            <mxPoint x="224.29999999999998" y="339.38" as="targetPoint" />
          </mxGeometry>
        </mxCell>
        <mxCell id="16CfGthC78HUpN7i-QSn-78" value="idNaturaleza" style="text;html=1;strokeColor=none;fillColor=none;align=left;verticalAlign=middle;whiteSpace=wrap;rounded=0;fontSize=9;" parent="1" vertex="1">
          <mxGeometry x="454.82" y="907.64" width="38.21" height="12.5" as="geometry" />
        </mxCell>
        <mxCell id="16CfGthC78HUpN7i-QSn-79" value="" style="ellipse;whiteSpace=wrap;html=1;aspect=fixed;fillColor=#CCCCCC;strokeColor=#000000;fontColor=#000000;" parent="1" vertex="1">
          <mxGeometry x="443.3200000000001" y="907.6399999999998" width="11" height="11" as="geometry" />
        </mxCell>
        <mxCell id="16CfGthC78HUpN7i-QSn-80" value="tipoEstudio" style="text;html=1;strokeColor=none;fillColor=none;align=left;verticalAlign=middle;whiteSpace=wrap;rounded=0;fontSize=9;" parent="1" vertex="1">
          <mxGeometry x="251.48000000000002" y="607.44" width="31.94" height="12.5" as="geometry" />
        </mxCell>
        <mxCell id="16CfGthC78HUpN7i-QSn-81" value="" style="ellipse;whiteSpace=wrap;html=1;aspect=fixed;fillColor=#FFFFFF;strokeColor=#000000;fontColor=#000000;" parent="1" vertex="1">
          <mxGeometry x="236.95000000000016" y="609.3900000000001" width="11" height="11" as="geometry" />
        </mxCell>
        <mxCell id="16CfGthC78HUpN7i-QSn-82" value="" style="endArrow=none;html=1;rounded=0;entryX=0.5;entryY=1;entryDx=0;entryDy=0;exitX=0.727;exitY=0.001;exitDx=0;exitDy=0;exitPerimeter=0;" parent="1" target="16CfGthC78HUpN7i-QSn-81" edge="1">
          <mxGeometry width="50" height="50" relative="1" as="geometry">
            <mxPoint x="242.5458299999999" y="627.27" as="sourcePoint" />
            <mxPoint x="313.98" y="602.44" as="targetPoint" />
          </mxGeometry>
        </mxCell>
        <mxCell id="16CfGthC78HUpN7i-QSn-84" value="" style="endArrow=none;html=1;rounded=0;entryX=0.5;entryY=1;entryDx=0;entryDy=0;exitX=0.204;exitY=-0.003;exitDx=0;exitDy=0;exitPerimeter=0;" parent="1" target="kpA3sOlLHsasUYpWddV5-98" edge="1">
          <mxGeometry width="50" height="50" relative="1" as="geometry">
            <mxPoint x="203.38916" y="627.2699999999999" as="sourcePoint" />
            <mxPoint x="324.66" y="602.68" as="targetPoint" />
          </mxGeometry>
        </mxCell>
        <mxCell id="16CfGthC78HUpN7i-QSn-85" value="nombre" style="text;html=1;strokeColor=none;fillColor=none;align=left;verticalAlign=middle;whiteSpace=wrap;rounded=0;fontSize=9;" parent="1" vertex="1">
          <mxGeometry x="477.99" y="891.64" width="31.94" height="12.5" as="geometry" />
        </mxCell>
        <mxCell id="16CfGthC78HUpN7i-QSn-86" value="" style="ellipse;whiteSpace=wrap;html=1;aspect=fixed;fillColor=#FFFFFF;strokeColor=#000000;fontColor=#000000;" parent="1" vertex="1">
          <mxGeometry x="466.07000000000016" y="892.39" width="11" height="11" as="geometry" />
        </mxCell>
        <mxCell id="16CfGthC78HUpN7i-QSn-87" value="" style="endArrow=none;html=1;rounded=0;entryX=0.5;entryY=0;entryDx=0;entryDy=0;exitX=0.419;exitY=1.004;exitDx=0;exitDy=0;exitPerimeter=0;" parent="1" target="16CfGthC78HUpN7i-QSn-86" edge="1">
          <mxGeometry width="50" height="50" relative="1" as="geometry">
            <mxPoint x="471.6400000000001" y="870.33" as="sourcePoint" />
            <mxPoint x="486.36" y="870.4399999999999" as="targetPoint" />
          </mxGeometry>
        </mxCell>
        <mxCell id="16CfGthC78HUpN7i-QSn-88" value="idSede" style="text;html=1;strokeColor=none;fillColor=none;align=left;verticalAlign=middle;whiteSpace=wrap;rounded=0;fontSize=9;" parent="1" vertex="1">
          <mxGeometry x="711.21" y="323.25" width="33.77" height="12.5" as="geometry" />
        </mxCell>
        <mxCell id="16CfGthC78HUpN7i-QSn-89" value="" style="ellipse;whiteSpace=wrap;html=1;aspect=fixed;fillColor=#CCCCCC;strokeColor=#000000;fontColor=#000000;" parent="1" vertex="1">
          <mxGeometry x="698.4800000000001" y="323.99999999999994" width="11" height="11" as="geometry" />
        </mxCell>
        <mxCell id="16CfGthC78HUpN7i-QSn-90" value="nombre" style="text;html=1;strokeColor=none;fillColor=none;align=left;verticalAlign=middle;whiteSpace=wrap;rounded=0;fontSize=9;" parent="1" vertex="1">
          <mxGeometry x="732.77" y="333.5" width="36.32" height="12.5" as="geometry" />
        </mxCell>
        <mxCell id="16CfGthC78HUpN7i-QSn-91" value="" style="ellipse;whiteSpace=wrap;html=1;aspect=fixed;fillColor=#FFFFFF;strokeColor=#000000;fontColor=#000000;" parent="1" vertex="1">
          <mxGeometry x="717.7099999999999" y="335" width="11" height="11" as="geometry" />
        </mxCell>
        <mxCell id="16CfGthC78HUpN7i-QSn-92" value="email" style="text;html=1;strokeColor=none;fillColor=none;align=left;verticalAlign=middle;whiteSpace=wrap;rounded=0;fontSize=9;" parent="1" vertex="1">
          <mxGeometry x="749.9599999999999" y="342.91" width="23.69" height="12.5" as="geometry" />
        </mxCell>
        <mxCell id="16CfGthC78HUpN7i-QSn-93" value="" style="ellipse;whiteSpace=wrap;html=1;aspect=fixed;fillColor=#FFFFFF;strokeColor=#000000;fontColor=#000000;" parent="1" vertex="1">
          <mxGeometry x="734.9799999999999" y="345.68" width="11" height="11" as="geometry" />
        </mxCell>
        <mxCell id="16CfGthC78HUpN7i-QSn-94" value="password" style="text;html=1;strokeColor=none;fillColor=none;align=left;verticalAlign=middle;whiteSpace=wrap;rounded=0;fontSize=9;" parent="1" vertex="1">
          <mxGeometry x="767.31" y="354.65999999999997" width="41.31" height="12.5" as="geometry" />
        </mxCell>
        <mxCell id="16CfGthC78HUpN7i-QSn-95" value="" style="ellipse;whiteSpace=wrap;html=1;aspect=fixed;fillColor=#FFFFFF;strokeColor=#000000;fontColor=#000000;" parent="1" vertex="1">
          <mxGeometry x="753.2099999999999" y="355.40999999999997" width="11" height="11" as="geometry" />
        </mxCell>
        <mxCell id="16CfGthC78HUpN7i-QSn-99" value="" style="endArrow=none;html=1;rounded=0;entryX=0.5;entryY=1;entryDx=0;entryDy=0;exitX=0.931;exitY=0.016;exitDx=0;exitDy=0;exitPerimeter=0;" parent="1" source="kpA3sOlLHsasUYpWddV5-62" target="16CfGthC78HUpN7i-QSn-95" edge="1">
          <mxGeometry width="50" height="50" relative="1" as="geometry">
            <mxPoint x="694.98" y="412.5" as="sourcePoint" />
            <mxPoint x="744.98" y="362.5" as="targetPoint" />
          </mxGeometry>
        </mxCell>
        <mxCell id="16CfGthC78HUpN7i-QSn-100" value="" style="endArrow=none;html=1;rounded=0;entryX=0.5;entryY=1;entryDx=0;entryDy=0;exitX=0.775;exitY=0;exitDx=0;exitDy=0;exitPerimeter=0;" parent="1" source="kpA3sOlLHsasUYpWddV5-62" target="16CfGthC78HUpN7i-QSn-93" edge="1">
          <mxGeometry width="50" height="50" relative="1" as="geometry">
            <mxPoint x="694.98" y="412.5" as="sourcePoint" />
            <mxPoint x="744.98" y="362.5" as="targetPoint" />
          </mxGeometry>
        </mxCell>
        <mxCell id="16CfGthC78HUpN7i-QSn-101" value="" style="endArrow=none;html=1;rounded=0;entryX=0.5;entryY=1;entryDx=0;entryDy=0;exitX=0.638;exitY=0.013;exitDx=0;exitDy=0;exitPerimeter=0;" parent="1" source="kpA3sOlLHsasUYpWddV5-62" target="16CfGthC78HUpN7i-QSn-91" edge="1">
          <mxGeometry width="50" height="50" relative="1" as="geometry">
            <mxPoint x="694.98" y="412.5" as="sourcePoint" />
            <mxPoint x="744.98" y="362.5" as="targetPoint" />
          </mxGeometry>
        </mxCell>
        <mxCell id="16CfGthC78HUpN7i-QSn-102" value="" style="endArrow=none;html=1;rounded=0;entryX=0.5;entryY=1;entryDx=0;entryDy=0;exitX=0.469;exitY=-0.007;exitDx=0;exitDy=0;exitPerimeter=0;" parent="1" source="kpA3sOlLHsasUYpWddV5-62" target="16CfGthC78HUpN7i-QSn-89" edge="1">
          <mxGeometry width="50" height="50" relative="1" as="geometry">
            <mxPoint x="694.98" y="412.5" as="sourcePoint" />
            <mxPoint x="744.98" y="362.5" as="targetPoint" />
          </mxGeometry>
        </mxCell>
        <mxCell id="16CfGthC78HUpN7i-QSn-103" value="descripciÃ³nInterpretaciÃ³n" style="text;html=1;strokeColor=none;fillColor=none;align=left;verticalAlign=middle;whiteSpace=wrap;rounded=0;fontSize=9;" parent="1" vertex="1">
          <mxGeometry x="130.57999999999998" y="417.3" width="80.91" height="12.5" as="geometry" />
        </mxCell>
        <mxCell id="16CfGthC78HUpN7i-QSn-104" value="" style="ellipse;whiteSpace=wrap;html=1;aspect=fixed;fillColor=#FFFFFF;strokeColor=#000000;fontColor=#000000;" parent="1" vertex="1">
          <mxGeometry x="234.43000000000015" y="422.31" width="11" height="11" as="geometry" />
        </mxCell>
        <mxCell id="16CfGthC78HUpN7i-QSn-105" value="" style="endArrow=none;html=1;rounded=0;entryX=0.5;entryY=1;entryDx=0;entryDy=0;exitX=0;exitY=1;exitDx=0;exitDy=0;" parent="1" source="kpA3sOlLHsasUYpWddV5-14" target="16CfGthC78HUpN7i-QSn-104" edge="1">
          <mxGeometry width="50" height="50" relative="1" as="geometry">
            <mxPoint x="294.98" y="502.5" as="sourcePoint" />
            <mxPoint x="344.98" y="452.5" as="targetPoint" />
            <Array as="points">
              <mxPoint x="239.98" y="502.5" />
            </Array>
          </mxGeometry>
        </mxCell>
        <mxCell id="He67eTRj_F0Hm9lQPRHD-2" value="" style="endArrow=none;html=1;rounded=0;entryX=0.5;entryY=0;entryDx=0;entryDy=0;exitX=0.362;exitY=1.024;exitDx=0;exitDy=0;exitPerimeter=0;" parent="1" target="16CfGthC78HUpN7i-QSn-79" edge="1">
          <mxGeometry width="50" height="50" relative="1" as="geometry">
            <mxPoint x="449.02000000000004" y="870.33" as="sourcePoint" />
            <mxPoint x="397.59999999999997" y="746.7399999999999" as="targetPoint" />
          </mxGeometry>
        </mxCell>
        <mxCell id="XCHFexNNAcEHE0UFx72Y-1" value="cÃ³digo" style="text;html=1;strokeColor=none;fillColor=none;align=left;verticalAlign=middle;whiteSpace=wrap;rounded=0;fontSize=9;" parent="1" vertex="1">
          <mxGeometry x="230.88000000000008" y="593.2" width="28.4" height="12.5" as="geometry" />
        </mxCell>
        <mxCell id="XCHFexNNAcEHE0UFx72Y-2" value="" style="ellipse;whiteSpace=wrap;html=1;aspect=fixed;fillColor=#FFFFFF;strokeColor=#000000;fontColor=#000000;" parent="1" vertex="1">
          <mxGeometry x="219.43000000000006" y="596.44" width="11" height="11" as="geometry" />
        </mxCell>
        <mxCell id="XCHFexNNAcEHE0UFx72Y-3" value="" style="endArrow=none;html=1;rounded=0;exitX=0.528;exitY=-0.017;exitDx=0;exitDy=0;exitPerimeter=0;entryX=0.487;entryY=0.9;entryDx=0;entryDy=0;entryPerimeter=0;" parent="1" source="MroF9Ox0VDxHsYH3NFP8-68" target="XCHFexNNAcEHE0UFx72Y-2" edge="1">
          <mxGeometry width="50" height="50" relative="1" as="geometry">
            <mxPoint x="224.76" y="629.45" as="sourcePoint" />
            <mxPoint x="225" y="610" as="targetPoint" />
          </mxGeometry>
        </mxCell>
        <mxCell id="XCHFexNNAcEHE0UFx72Y-4" value="1:N" style="text;html=1;strokeColor=none;fillColor=none;align=center;verticalAlign=middle;whiteSpace=wrap;rounded=0;fontSize=15;fontStyle=1;" parent="1" vertex="1">
          <mxGeometry x="361.15999999999985" y="689.9399999999998" width="22.43" height="20" as="geometry" />
        </mxCell>
        <mxCell id="XCHFexNNAcEHE0UFx72Y-5" value="&lt;font style=&quot;font-size: 8px;&quot;&gt;&amp;nbsp; &amp;nbsp; &amp;nbsp; &amp;nbsp; Nat-Mues&lt;/font&gt;" style="shape=rhombus;perimeter=rhombusPerimeter;whiteSpace=wrap;html=1;align=left;fontStyle=1;fontSize=10;" parent="1" vertex="1">
          <mxGeometry x="337.16" y="629.9399999999999" width="70.42" height="60" as="geometry" />
        </mxCell>
        <mxCell id="XCHFexNNAcEHE0UFx72Y-6" value="ID" style="text;html=1;strokeColor=none;fillColor=none;align=center;verticalAlign=middle;whiteSpace=wrap;rounded=0;fontSize=8;fontStyle=1;" parent="1" vertex="1">
          <mxGeometry x="339.68" y="655.28" width="12.43" height="9.31" as="geometry" />
        </mxCell>
        <mxCell id="XCHFexNNAcEHE0UFx72Y-7" value="" style="endArrow=none;html=1;rounded=0;exitX=0.211;exitY=0.294;exitDx=0;exitDy=0;entryX=0.214;entryY=0.715;entryDx=0;entryDy=0;exitPerimeter=0;entryPerimeter=0;" parent="1" source="XCHFexNNAcEHE0UFx72Y-5" target="XCHFexNNAcEHE0UFx72Y-5" edge="1">
          <mxGeometry width="50" height="50" relative="1" as="geometry">
            <mxPoint x="349.74072000000007" y="646.92" as="sourcePoint" />
            <mxPoint x="349.59988000000004" y="672.96" as="targetPoint" />
          </mxGeometry>
        </mxCell>
        <mxCell id="XCHFexNNAcEHE0UFx72Y-8" value="tiene" style="text;html=1;strokeColor=none;fillColor=none;align=left;verticalAlign=middle;whiteSpace=wrap;rounded=0;fontSize=9;" parent="1" vertex="1">
          <mxGeometry x="275.41" y="639.9999999999998" width="29.52" height="12.5" as="geometry" />
        </mxCell>
        <mxCell id="XCHFexNNAcEHE0UFx72Y-9" value="corresponde_a" style="text;html=1;strokeColor=none;fillColor=none;align=left;verticalAlign=middle;whiteSpace=wrap;rounded=0;fontSize=9;" parent="1" vertex="1">
          <mxGeometry x="306.3900000000002" y="580.7" width="50" height="12.5" as="geometry" />
        </mxCell>
        <mxCell id="XCHFexNNAcEHE0UFx72Y-10" value="(1,1)" style="text;html=1;strokeColor=none;fillColor=none;align=left;verticalAlign=middle;whiteSpace=wrap;rounded=0;fontSize=9;" parent="1" vertex="1">
          <mxGeometry x="275.41000000000065" y="666.2400000000005" width="25.5" height="12.5" as="geometry" />
        </mxCell>
        <mxCell id="XCHFexNNAcEHE0UFx72Y-11" value="(0,N)" style="text;html=1;strokeColor=none;fillColor=none;align=left;verticalAlign=middle;whiteSpace=wrap;rounded=0;fontSize=9;" parent="1" vertex="1">
          <mxGeometry x="375.65" y="585.7499999999999" width="22.5" height="6.7" as="geometry" />
        </mxCell>
        <mxCell id="XCHFexNNAcEHE0UFx72Y-12" value="" style="endArrow=classic;html=1;rounded=0;exitX=0;exitY=0.5;exitDx=0;exitDy=0;entryX=1.018;entryY=0.55;entryDx=0;entryDy=0;entryPerimeter=0;" parent="1" source="XCHFexNNAcEHE0UFx72Y-5" target="MroF9Ox0VDxHsYH3NFP8-68" edge="1">
          <mxGeometry width="50" height="50" relative="1" as="geometry">
            <mxPoint x="412" y="710" as="sourcePoint" />
            <mxPoint x="412" y="680" as="targetPoint" />
          </mxGeometry>
        </mxCell>
        <mxCell id="XCHFexNNAcEHE0UFx72Y-13" value="" style="endArrow=classic;html=1;rounded=0;exitX=0.5;exitY=0;exitDx=0;exitDy=0;entryX=0.118;entryY=1.005;entryDx=0;entryDy=0;entryPerimeter=0;" parent="1" source="XCHFexNNAcEHE0UFx72Y-5" target="MroF9Ox0VDxHsYH3NFP8-73" edge="1">
          <mxGeometry width="50" height="50" relative="1" as="geometry">
            <mxPoint x="412" y="710" as="sourcePoint" />
            <mxPoint x="462" y="660" as="targetPoint" />
          </mxGeometry>
        </mxCell>
      </root>
    </mxGraphModel>
  </diagram>
</mxfile>
